999
dxfrw 0.5.10
0
SECTION
2
HEADER
9
$ACADVER
1
AC1021
9
$HANDSEED
5
20000
9
$DWGCODEPAGE
3
ANSI_1252
9
$INSBASE
10
0
20
0
30
0
9
$EXTMIN
10
-24.5075
20
-439.584255219
30
0
9
$EXTMAX
10
999.159912109
20
408.424926758
30
0
9
$LIMMIN
10
0
20
0
9
$LIMMAX
10
420
20
297
9
$ORTHOMODE
70
0
9
$LTSCALE
40
1
9
$TEXTSTYLE
7
STANDARD
9
$CLAYER
8
0
9
$DIMASZ
40
2.5
9
$DIMLFAC
40
1
9
$DIMSCALE
40
1
9
$DIMEXO
40
0.625
9
$DIMEXE
40
1.25
9
$DIMTXT
40
2.5
9
$DIMTSZ
40
0
9
$DIMAUNIT
70
0
9
$DIMADEC
70
0
9
$DIMLUNIT
70
2
9
$DIMSTYLE
2
STANDARD
9
$DIMGAP
40
0.625
9
$DIMTIH
70
0
9
$LUNITS
70
2
9
$LUPREC
70
4
9
$AUNITS
70
0
9
$AUPREC
70
2
9
$SPLINESEGS
70
8
9
$SNAPSTYLE
70
0
9
$PINSBASE
10
0
20
0
30
0
9
$PLIMMIN
10
0
20
0
9
$PLIMMAX
10
210
20
297
9
$INSUNITS
70
4
9
$PSVPSCALE
40
1
0
ENDSEC
0
SECTION
2
CLASSES
0
ENDSEC
0
SECTION
2
TABLES
0
TABLE
2
VPORT
5
8
330
0
100
AcDbSymbolTable
70
1
0
VPORT
5
31
330
2
100
AcDbSymbolTableRecord
100
AcDbViewportTableRecord
2
*ACTIVE
70
0
10
0
20
0
11
1
21
1
12
488.256
22
-49.28
13
0
23
0
14
10
24
10
15
10
25
10
16
0
26
0
36
1
17
0
27
0
37
0
40
100.864
41
1.93654822335
42
50
43
0
44
0
50
0
51
0
71
0
72
100
73
1
74
3
75
0
76
1
77
0
78
0
281
0
65
1
110
0
120
0
130
0
111
1
121
0
131
0
112
0
122
1
132
0
79
0
146
0
348
10020
60
7
61
5
292
1
282
1
141
0
142
0
63
250
421
3358443
0
ENDTAB
0
TABLE
2
LTYPE
5
5
330
0
100
AcDbSymbolTable
70
4
0
LTYPE
5
14
330
5
100
AcDbSymbolTableRecord
100
AcDbLinetypeTableRecord
2
ByBlock
70
0
3

72
65
73
0
40
0
0
LTYPE
5
15
330
5
100
AcDbSymbolTableRecord
100
AcDbLinetypeTableRecord
2
ByLayer
70
0
3

72
65
73
0
40
0
0
LTYPE
5
16
330
5
100
AcDbSymbolTableRecord
100
AcDbLinetypeTableRecord
2
Continuous
70
0
3
Solid line
72
65
73
0
40
0
0
LTYPE
5
32
330
5
100
AcDbSymbolTableRecord
100
AcDbLinetypeTableRecord
2
DOT
70
0
3
Dot . . . . . . . . . . . . . . . . . . . . . .
72
65
73
2
40
6.35
49
0
74
0
49
-6.35
74
0
0
LTYPE
5
33
330
5
100
AcDbSymbolTableRecord
100
AcDbLinetypeTableRecord
2
DOT2
70
0
3
Dot (.5x) .....................................
72
65
73
2
40
3.175
49
0
74
0
49
-3.175
74
0
0
LTYPE
5
34
330
5
100
AcDbSymbolTableRecord
100
AcDbLinetypeTableRecord
2
DOTX2
70
0
3
Dot (2x) .  .  .  .  .  .  .  .  .  .  .  .  .
72
65
73
2
40
12.7
49
0
74
0
49
-12.7
74
0
0
LTYPE
5
35
330
5
100
AcDbSymbolTableRecord
100
AcDbLinetypeTableRecord
2
DASHED
70
0
3
Dot . . . . . . . . . . . . . . . . . . . . . .
72
65
73
2
40
19.05
49
12.7
74
0
49
-6.35
74
0
0
LTYPE
5
36
330
5
100
AcDbSymbolTableRecord
100
AcDbLinetypeTableRecord
2
DASHED2
70
0
3
Dashed (.5x) _ _ _ _ _ _ _ _ _ _ _ _ _ _ _ _ _
72
65
73
2
40
9.525
49
6.35
74
0
49
-3.175
74
0
0
LTYPE
5
37
330
5
100
AcDbSymbolTableRecord
100
AcDbLinetypeTableRecord
2
DASHEDX2
70
0
3
Dashed (2x) ____  ____  ____  ____  ____  ___
72
65
73
2
40
38.1
49
25.4
74
0
49
-12.7
74
0
0
LTYPE
5
38
330
5
100
AcDbSymbolTableRecord
100
AcDbLinetypeTableRecord
2
DASHDOT
70
0
3
Dash dot __ . __ . __ . __ . __ . __ . __ . __
72
65
73
4
40
25.4
49
12.7
74
0
49
-6.35
74
0
49
0
74
0
49
-6.35
74
0
0
LTYPE
5
39
330
5
100
AcDbSymbolTableRecord
100
AcDbLinetypeTableRecord
2
DASHDOT2
70
0
3
Dash dot (.5x) _._._._._._._._._._._._._._._.
72
65
73
4
40
12.7
49
6.35
74
0
49
-3.175
74
0
49
0
74
0
49
-3.175
74
0
0
LTYPE
5
3A
330
5
100
AcDbSymbolTableRecord
100
AcDbLinetypeTableRecord
2
DASHDOTX2
70
0
3
Dash dot (2x) ____  .  ____  .  ____  .  ___
72
65
73
4
40
50.8
49
25.4
74
0
49
-12.7
74
0
49
0
74
0
49
-12.7
74
0
0
LTYPE
5
3B
330
5
100
AcDbSymbolTableRecord
100
AcDbLinetypeTableRecord
2
DIVIDE
70
0
3
Divide ____ . . ____ . . ____ . . ____ . . ____
72
65
73
6
40
31.75
49
12.7
74
0
49
-6.35
74
0
49
0
74
0
49
-6.35
74
0
49
0
74
0
49
-6.35
74
0
0
LTYPE
5
3C
330
5
100
AcDbSymbolTableRecord
100
AcDbLinetypeTableRecord
2
DIVIDE2
70
0
3
Divide (.5x) __..__..__..__..__..__..__..__.._
72
65
73
6
40
15.875
49
6.35
74
0
49
-3.175
74
0
49
0
74
0
49
-3.175
74
0
49
0
74
0
49
-3.175
74
0
0
LTYPE
5
3D
330
5
100
AcDbSymbolTableRecord
100
AcDbLinetypeTableRecord
2
DIVIDEX2
70
0
3
Divide (2x) ________  .  .  ________  .  .  _
72
65
73
6
40
63.5
49
25.4
74
0
49
-12.7
74
0
49
0
74
0
49
-12.7
74
0
49
0
74
0
49
-12.7
74
0
0
LTYPE
5
3E
330
5
100
AcDbSymbolTableRecord
100
AcDbLinetypeTableRecord
2
BORDER
70
0
3
Border __ __ . __ __ . __ __ . __ __ . __ __ .
72
65
73
6
40
44.45
49
12.7
74
0
49
-6.35
74
0
49
12.7
74
0
49
-6.35
74
0
49
0
74
0
49
-6.35
74
0
0
LTYPE
5
3F
330
5
100
AcDbSymbolTableRecord
100
AcDbLinetypeTableRecord
2
BORDER2
70
0
3
Border (.5x) __.__.__.__.__.__.__.__.__.__.__.
72
65
73
6
40
22.225
49
6.35
74
0
49
-3.175
74
0
49
6.35
74
0
49
-3.175
74
0
49
0
74
0
49
-3.175
74
0
0
LTYPE
5
40
330
5
100
AcDbSymbolTableRecord
100
AcDbLinetypeTableRecord
2
BORDERX2
70
0
3
Border (2x) ____  ____  .  ____  ____  .  ___
72
65
73
6
40
88.9
49
25.4
74
0
49
-12.7
74
0
49
25.4
74
0
49
-12.7
74
0
49
0
74
0
49
-12.7
74
0
0
LTYPE
5
41
330
5
100
AcDbSymbolTableRecord
100
AcDbLinetypeTableRecord
2
CENTER
70
0
3
Center ____ _ ____ _ ____ _ ____ _ ____ _ ____
72
65
73
4
40
50.8
49
31.75
74
0
49
-6.35
74
0
49
6.35
74
0
49
-6.35
74
0
0
LTYPE
5
42
330
5
100
AcDbSymbolTableRecord
100
AcDbLinetypeTableRecord
2
CENTER2
70
0
3
Center (.5x) ___ _ ___ _ ___ _ ___ _ ___ _ ___
72
65
73
4
40
28.575
49
19.05
74
0
49
-3.175
74
0
49
3.175
74
0
49
-3.175
74
0
0
LTYPE
5
43
330
5
100
AcDbSymbolTableRecord
100
AcDbLinetypeTableRecord
2
CENTERX2
70
0
3
Center (2x) ________  __  ________  __  _____
72
65
73
4
40
101.6
49
63.5
74
0
49
-12.7
74
0
49
12.7
74
0
49
-12.7
74
0
0
ENDTAB
0
TABLE
2
LAYER
5
2
330
0
100
AcDbSymbolTable
70
1
0
LAYER
5
10
330
2
100
AcDbSymbolTableRecord
100
AcDbLayerTableRecord
2
0
70
0
62
7
6
CONTINUOUS
370
0
390
F
0
ENDTAB
0
TABLE
2
STYLE
5
3
330
0
100
AcDbSymbolTable
70
3
0
STYLE
5
44
330
2
100
AcDbSymbolTableRecord
100
AcDbTextStyleTableRecord
2
Standard
70
0
40
0
41
1
50
0
71
0
42
1
3
txt
4

0
ENDTAB
0
TABLE
2
VIEW
5
6
330
0
100
AcDbSymbolTable
70
0
0
ENDTAB
0
TABLE
2
UCS
5
7
330
0
100
AcDbSymbolTable
70
0
0
ENDTAB
0
TABLE
2
APPID
5
9
330
0
100
AcDbSymbolTable
70
1
0
APPID
5
12
330
9
100
AcDbSymbolTableRecord
100
AcDbRegAppTableRecord
2
ACAD
70
0
0
ENDTAB
0
TABLE
2
DIMSTYLE
5
A
330
0
100
AcDbSymbolTable
70
1
100
AcDbDimStyleTable
71
1
0
DIMSTYLE
105
45
330
A
100
AcDbSymbolTableRecord
100
AcDbDimStyleTableRecord
2
Standard
70
0
40
1
41
2.5
42
0.625
43
0.38
44
1.25
45
0
46
0
47
0
48
0
140
2.5
141
0.09
142
0
143
25.4
144
1
145
0
146
1
147
0.625
148
0
71
0
72
0
73
0
74
1
75
0
76
0
77
0
78
0
79
0
170
0
171
2
172
0
173
0
174
0
175
0
176
0
177
0
178
0
179
0
271
4
272
4
273
2
274
2
275
0
276
0
277
2
278
46
279
0
280
0
281
0
282
0
283
1
284
0
285
0
286
0
288
0
289
3
340
Standard
341

371
-2
372
-2
0
ENDTAB
0
TABLE
2
BLOCK_RECORD
5
1
330
0
100
AcDbSymbolTable
70
2
0
BLOCK_RECORD
5
1F
330
1
100
AcDbSymbolTableRecord
100
AcDbBlockTableRecord
2
*Model_Space
70
0
280
1
281
0
0
BLOCK_RECORD
5
1E
330
1
100
AcDbSymbolTableRecord
100
AcDbBlockTableRecord
2
*Paper_Space
70
0
280
1
281
0
0
BLOCK_RECORD
5
46
330
1
100
AcDbSymbolTableRecord
100
AcDbBlockTableRecord
2
*D4
70
0
280
1
281
0
0
BLOCK_RECORD
5
49
330
1
100
AcDbSymbolTableRecord
100
AcDbBlockTableRecord
2
*D12
70
0
280
1
281
0
0
BLOCK_RECORD
5
4C
330
1
100
AcDbSymbolTableRecord
100
AcDbBlockTableRecord
2
*D10
70
0
280
1
281
0
0
BLOCK_RECORD
5
4F
330
1
100
AcDbSymbolTableRecord
100
AcDbBlockTableRecord
2
*D20
70
0
280
1
281
0
0
BLOCK_RECORD
5
52
330
1
100
AcDbSymbolTableRecord
100
AcDbBlockTableRecord
2
*D15
70
0
280
1
281
0
0
BLOCK_RECORD
5
55
330
1
100
AcDbSymbolTableRecord
100
AcDbBlockTableRecord
2
*D3
70
0
280
1
281
0
0
BLOCK_RECORD
5
58
330
1
100
AcDbSymbolTableRecord
100
AcDbBlockTableRecord
2
*D5
70
0
280
1
281
0
0
BLOCK_RECORD
5
5B
330
1
100
AcDbSymbolTableRecord
100
AcDbBlockTableRecord
2
*D2
70
0
280
1
281
0
0
BLOCK_RECORD
5
5E
330
1
100
AcDbSymbolTableRecord
100
AcDbBlockTableRecord
2
*D18
70
0
280
1
281
0
0
BLOCK_RECORD
5
61
330
1
100
AcDbSymbolTableRecord
100
AcDbBlockTableRecord
2
*D8
70
0
280
1
281
0
0
BLOCK_RECORD
5
64
330
1
100
AcDbSymbolTableRecord
100
AcDbBlockTableRecord
2
*D7
70
0
280
1
281
0
0
BLOCK_RECORD
5
67
330
1
100
AcDbSymbolTableRecord
100
AcDbBlockTableRecord
2
*D1
70
0
280
1
281
0
0
BLOCK_RECORD
5
6A
330
1
100
AcDbSymbolTableRecord
100
AcDbBlockTableRecord
2
*D16
70
0
280
1
281
0
0
BLOCK_RECORD
5
6D
330
1
100
AcDbSymbolTableRecord
100
AcDbBlockTableRecord
2
*D19
70
0
280
1
281
0
0
BLOCK_RECORD
5
70
330
1
100
AcDbSymbolTableRecord
100
AcDbBlockTableRecord
2
*D17
70
0
280
1
281
0
0
BLOCK_RECORD
5
73
330
1
100
AcDbSymbolTableRecord
100
AcDbBlockTableRecord
2
*D14
70
0
280
1
281
0
0
BLOCK_RECORD
5
76
330
1
100
AcDbSymbolTableRecord
100
AcDbBlockTableRecord
2
*D9
70
0
280
1
281
0
0
BLOCK_RECORD
5
79
330
1
100
AcDbSymbolTableRecord
100
AcDbBlockTableRecord
2
*D6
70
0
280
1
281
0
0
BLOCK_RECORD
5
7C
330
1
100
AcDbSymbolTableRecord
100
AcDbBlockTableRecord
2
*D13
70
0
280
1
281
0
0
BLOCK_RECORD
5
7F
330
1
100
AcDbSymbolTableRecord
100
AcDbBlockTableRecord
2
*D11
70
0
280
1
281
0
0
ENDTAB
0
ENDSEC
0
SECTION
2
BLOCKS
0
BLOCK
5
20
330
1F
100
AcDbEntity
8
0
100
AcDbBlockBegin
2
*Model_Space
70
0
10
0
20
0
30
0
3
*Model_Space
1

0
ENDBLK
5
21
330
1F
100
AcDbEntity
8
0
100
AcDbBlockEnd
0
BLOCK
5
1C
330
1B
100
AcDbEntity
8
0
100
AcDbBlockBegin
2
*Paper_Space
70
0
10
0
20
0
30
0
3
*Paper_Space
1

0
ENDBLK
5
1D
330
1F
100
AcDbEntity
8
0
100
AcDbBlockEnd
0
BLOCK
5
47
330
46
100
AcDbEntity
8
0
100
AcDbBlockBegin
2
*D4
70
1
10
0
20
0
3
*D4
1

0
LINE
5
82
100
AcDbEntity
8
0
6
CONTINUOUS
62
7
370
0
100
AcDbLine
10
265.3184
20
284.2624
11
306.176
21
284.2624
0
SOLID
5
83
100
AcDbEntity
8
0
6
CONTINUOUS
62
7
370
0
100
AcDbTrace
10
265.3184
20
284.2624
30
0
11
267.8184
21
284.678684658
31
0
12
267.8184
22
283.846115342
32
0
13
267.8184
23
283.846115342
33
0
0
SOLID
5
84
100
AcDbEntity
8
0
6
CONTINUOUS
62
7
370
0
100
AcDbTrace
10
306.176
20
284.2624
30
0
11
303.676
21
283.846115342
31
0
12
303.676
22
284.678684658
32
0
13
303.676
23
284.678684658
33
0
0
MTEXT
5
85
100
AcDbEntity
8
0
6
CONTINUOUS
62
7
370
0
100
AcDbMText
10
285.7472
20
286.1374
30
0
40
2.5
41
11.9444444444
71
5
72
1
1
40.8576
7
standard
210
0
220
0
230
1
50
0
73
2
44
1
0
LINE
5
86
100
AcDbEntity
8
0
6
CONTINUOUS
62
7
370
0
100
AcDbLine
10
265.3184
20
295.5158
11
265.3184
21
283.0124
0
LINE
5
87
100
AcDbEntity
8
0
6
CONTINUOUS
62
7
370
0
100
AcDbLine
10
306.176
20
295.6182
11
306.176
21
283.0124
0
ENDBLK
5
48
330
46
100
AcDbEntity
8
0
100
AcDbBlockEnd
0
BLOCK
5
4A
330
49
100
AcDbEntity
8
0
100
AcDbBlockBegin
2
*D12
70
1
10
0
20
0
3
*D12
1

0
LINE
5
88
100
AcDbEntity
8
0
6
CONTINUOUS
62
7
370
0
100
AcDbLine
10
875
20
-154.4
11
918
21
-154.4
0
SOLID
5
89
100
AcDbEntity
8
0
6
CONTINUOUS
62
7
370
0
100
AcDbTrace
10
875
20
-154.4
30
0
11
877.5
21
-153.983715342
31
0
12
877.5
22
-154.816284658
32
0
13
877.5
23
-154.816284658
33
0
0
SOLID
5
8A
100
AcDbEntity
8
0
6
CONTINUOUS
62
7
370
0
100
AcDbTrace
10
918
20
-154.4
30
0
11
915.5
21
-154.816284658
31
0
12
915.5
22
-153.983715342
32
0
13
915.5
23
-153.983715342
33
0
0
MTEXT
5
8B
100
AcDbEntity
8
0
6
CONTINUOUS
62
7
370
0
100
AcDbMText
10
896.5
20
-152.525
30
0
40
2.5
41
3.33333333333
71
5
72
1
1
43
7
standard
210
0
220
0
230
1
50
0
73
2
44
1
0
LINE
5
8C
100
AcDbEntity
8
0
6
CONTINUOUS
62
7
370
0
100
AcDbLine
10
875
20
-150.225
11
875
21
-155.65
0
LINE
5
8D
100
AcDbEntity
8
0
6
CONTINUOUS
62
7
370
0
100
AcDbLine
10
918
20
-150.425
11
918
21
-155.65
0
ENDBLK
5
4B
330
49
100
AcDbEntity
8
0
100
AcDbBlockEnd
0
BLOCK
5
4D
330
4C
100
AcDbEntity
8
0
100
AcDbBlockBegin
2
*D10
70
1
10
0
20
0
3
*D10
1

0
LINE
5
8E
100
AcDbEntity
8
0
6
CONTINUOUS
62
7
370
0
100
AcDbLine
10
482.6
20
-209
11
519.4
21
-209
0
SOLID
5
8F
100
AcDbEntity
8
0
6
CONTINUOUS
62
7
370
0
100
AcDbTrace
10
482.6
20
-209
30
0
11
485.1
21
-208.583715342
31
0
12
485.1
22
-209.416284658
32
0
13
485.1
23
-209.416284658
33
0
0
SOLID
5
90
100
AcDbEntity
8
0
6
CONTINUOUS
62
7
370
0
100
AcDbTrace
10
519.4
20
-209
30
0
11
516.9
21
-209.416284658
31
0
12
516.9
22
-208.583715342
32
0
13
516.9
23
-208.583715342
33
0
0
MTEXT
5
91
100
AcDbEntity
8
0
6
CONTINUOUS
62
7
370
0
100
AcDbMText
10
501
20
-207.125
30
0
40
2.5
41
5.83333333333
71
5
72
1
1
36.8
7
standard
210
0
220
0
230
1
50
0
73
2
44
1
0
LINE
5
92
100
AcDbEntity
8
0
6
CONTINUOUS
62
7
370
0
100
AcDbLine
10
482.6
20
-202.825
11
482.6
21
-210.25
0
LINE
5
93
100
AcDbEntity
8
0
6
CONTINUOUS
62
7
370
0
100
AcDbLine
10
519.4
20
-202.625
11
519.4
21
-210.25
0
ENDBLK
5
4E
330
4C
100
AcDbEntity
8
0
100
AcDbBlockEnd
0
BLOCK
5
50
330
4F
100
AcDbEntity
8
0
100
AcDbBlockBegin
2
*D20
70
1
10
0
20
0
3
*D20
1

0
LINE
5
94
100
AcDbEntity
8
0
6
CONTINUOUS
62
7
370
0
100
AcDbLine
10
207.2576
20
326.024
11
207.2576
21
312.0304
0
SOLID
5
95
100
AcDbEntity
8
0
6
CONTINUOUS
62
7
370
0
100
AcDbTrace
10
207.2576
20
321.024
30
0
11
206.841315342
21
323.524
31
0
12
207.673884658
22
323.524
32
0
13
207.673884658
23
323.524
33
0
0
SOLID
5
96
100
AcDbEntity
8
0
6
CONTINUOUS
62
7
370
0
100
AcDbTrace
10
207.2576
20
317.0304
30
0
11
207.673884658
21
314.5304
31
0
12
206.841315342
22
314.5304
32
0
13
206.841315342
23
314.5304
33
0
0
MTEXT
5
97
100
AcDbEntity
8
0
6
CONTINUOUS
62
7
370
0
100
AcDbMText
10
205.3826
20
326.510111111
30
0
40
2.5
41
9.72222222222
71
5
72
1
1
3.9936
7
standard
210
0
220
0
230
1
50
90
73
2
44
1
0
LINE
5
98
100
AcDbEntity
8
0
6
CONTINUOUS
62
7
370
0
100
AcDbLine
10
285.3782
20
321.024
11
206.0076
21
321.024
0
LINE
5
99
100
AcDbEntity
8
0
6
CONTINUOUS
62
7
370
0
100
AcDbLine
10
285.2758
20
317.0304
11
206.0076
21
317.0304
0
ENDBLK
5
51
330
4F
100
AcDbEntity
8
0
100
AcDbBlockEnd
0
BLOCK
5
53
330
52
100
AcDbEntity
8
0
100
AcDbBlockBegin
2
*D15
70
1
10
0
20
0
3
*D15
1

0
LINE
5
9A
100
AcDbEntity
8
0
6
CONTINUOUS
62
7
370
0
100
AcDbLine
10
412.96
20
-170.88
11
412.96
21
-183.68
0
SOLID
5
9B
100
AcDbEntity
8
0
6
CONTINUOUS
62
7
370
0
100
AcDbTrace
10
412.96
20
-170.88
30
0
11
413.376284658
21
-173.38
31
0
12
412.543715342
22
-173.38
32
0
13
412.543715342
23
-173.38
33
0
0
SOLID
5
9C
100
AcDbEntity
8
0
6
CONTINUOUS
62
7
370
0
100
AcDbTrace
10
412.96
20
-183.68
30
0
11
412.543715342
21
-181.18
31
0
12
413.376284658
22
-181.18
32
0
13
413.376284658
23
-181.18
33
0
0
MTEXT
5
9D
100
AcDbEntity
8
0
6
CONTINUOUS
62
7
370
0
100
AcDbMText
10
411.085
20
-177.28
30
0
40
2.5
41
5.27777777778
71
5
72
1
1
12.8
7
standard
210
0
220
0
230
1
50
90
73
2
44
1
0
LINE
5
9E
100
AcDbEntity
8
0
6
CONTINUOUS
62
7
370
0
100
AcDbLine
10
500.495
20
-170.88
11
411.71
21
-170.88
0
LINE
5
9F
100
AcDbEntity
8
0
6
CONTINUOUS
62
7
370
0
100
AcDbLine
10
500.655
20
-183.68
11
411.71
21
-183.68
0
ENDBLK
5
54
330
52
100
AcDbEntity
8
0
100
AcDbBlockEnd
0
BLOCK
5
56
330
55
100
AcDbEntity
8
0
100
AcDbBlockBegin
2
*D3
70
1
10
0
20
0
3
*D3
1

0
LINE
5
A0
100
AcDbEntity
8
0
6
CONTINUOUS
62
7
370
0
100
AcDbLine
10
33.792
20
228.4544
11
69.2224
21
228.4544
0
SOLID
5
A1
100
AcDbEntity
8
0
6
CONTINUOUS
62
7
370
0
100
AcDbTrace
10
33.792
20
228.4544
30
0
11
36.292
21
228.870684658
31
0
12
36.292
22
228.038115342
32
0
13
36.292
23
228.038115342
33
0
0
SOLID
5
A2
100
AcDbEntity
8
0
6
CONTINUOUS
62
7
370
0
100
AcDbTrace
10
69.2224
20
228.4544
30
0
11
66.7224
21
228.038115342
31
0
12
66.7224
22
228.870684658
32
0
13
66.7224
23
228.870684658
33
0
0
MTEXT
5
A3
100
AcDbEntity
8
0
6
CONTINUOUS
62
7
370
0
100
AcDbMText
10
51.5072
20
230.3294
30
0
40
2.5
41
12.2222222222
71
5
72
1
1
35.4304
7
standard
210
0
220
0
230
1
50
0
73
2
44
1
0
LINE
5
A4
100
AcDbEntity
8
0
6
CONTINUOUS
62
7
370
0
100
AcDbLine
10
33.792
20
236.3286
11
33.792
21
227.2044
0
LINE
5
A5
100
AcDbEntity
8
0
6
CONTINUOUS
62
7
370
0
100
AcDbLine
10
69.2224
20
236.431
11
69.2224
21
227.2044
0
ENDBLK
5
57
330
55
100
AcDbEntity
8
0
100
AcDbBlockEnd
0
BLOCK
5
59
330
58
100
AcDbEntity
8
0
100
AcDbBlockBegin
2
*D5
70
1
10
0
20
0
3
*D5
1

0
LINE
5
A6
100
AcDbEntity
8
0
6
CONTINUOUS
62
7
370
0
100
AcDbLine
10
476.32
20
167.04
11
513.44
21
167.04
0
SOLID
5
A7
100
AcDbEntity
8
0
6
CONTINUOUS
62
7
370
0
100
AcDbTrace
10
476.32
20
167.04
30
0
11
478.82
21
167.456284658
31
0
12
478.82
22
166.623715342
32
0
13
478.82
23
166.623715342
33
0
0
SOLID
5
A8
100
AcDbEntity
8
0
6
CONTINUOUS
62
7
370
0
100
AcDbTrace
10
513.44
20
167.04
30
0
11
510.94
21
166.623715342
31
0
12
510.94
22
167.456284658
32
0
13
510.94
23
167.456284658
33
0
0
MTEXT
5
A9
100
AcDbEntity
8
0
6
CONTINUOUS
62
7
370
0
100
AcDbMText
10
494.88
20
168.915
30
0
40
2.5
41
7.22222222222
71
5
72
1
1
37.12
7
standard
210
0
220
0
230
1
50
0
73
2
44
1
0
LINE
5
AA
100
AcDbEntity
8
0
6
CONTINUOUS
62
7
370
0
100
AcDbLine
10
476.32
20
173.935
11
476.32
21
165.79
0
LINE
5
AB
100
AcDbEntity
8
0
6
CONTINUOUS
62
7
370
0
100
AcDbLine
10
513.44
20
173.615
11
513.44
21
165.79
0
ENDBLK
5
5A
330
58
100
AcDbEntity
8
0
100
AcDbBlockEnd
0
BLOCK
5
5C
330
5B
100
AcDbEntity
8
0
100
AcDbBlockBegin
2
*D2
70
1
10
0
20
0
3
*D2
1

0
LINE
5
AC
100
AcDbEntity
8
0
6
CONTINUOUS
62
7
370
0
100
AcDbLine
10
56.9344
20
261.3072
11
56.9344
21
248.0304
0
SOLID
5
AD
100
AcDbEntity
8
0
6
CONTINUOUS
62
7
370
0
100
AcDbTrace
10
56.9344
20
256.3072
30
0
11
56.5181153422
21
258.8072
31
0
12
57.3506846578
22
258.8072
32
0
13
57.3506846578
23
258.8072
33
0
0
SOLID
5
AE
100
AcDbEntity
8
0
6
CONTINUOUS
62
7
370
0
100
AcDbTrace
10
56.9344
20
253.0304
30
0
11
57.3506846578
21
250.5304
31
0
12
56.5181153422
22
250.5304
32
0
13
56.5181153422
23
250.5304
33
0
0
MTEXT
5
AF
100
AcDbEntity
8
0
6
CONTINUOUS
62
7
370
0
100
AcDbMText
10
55.0594
20
261.793311111
30
0
40
2.5
41
9.72222222222
71
5
72
1
1
3.2768
7
standard
210
0
220
0
230
1
50
90
73
2
44
1
0
LINE
5
B0
100
AcDbEntity
8
0
6
CONTINUOUS
62
7
370
0
100
AcDbLine
10
52.6442
20
256.3072
11
58.1844
21
256.3072
0
LINE
5
B1
100
AcDbEntity
8
0
6
CONTINUOUS
62
7
370
0
100
AcDbLine
10
52.5418
20
253.0304
11
58.1844
21
253.0304
0
ENDBLK
5
5D
330
5B
100
AcDbEntity
8
0
100
AcDbBlockEnd
0
BLOCK
5
5F
330
5E
100
AcDbEntity
8
0
100
AcDbBlockBegin
2
*D18
70
1
10
0
20
0
3
*D18
1

0
LINE
5
B2
100
AcDbEntity
8
0
6
CONTINUOUS
62
7
370
0
100
AcDbLine
10
611.6352
20
296.84
11
611.6352
21
284.3824
0
SOLID
5
B3
100
AcDbEntity
8
0
6
CONTINUOUS
62
7
370
0
100
AcDbTrace
10
611.6352
20
291.84
30
0
11
611.218915342
21
294.34
31
0
12
612.051484658
22
294.34
32
0
13
612.051484658
23
294.34
33
0
0
SOLID
5
B4
100
AcDbEntity
8
0
6
CONTINUOUS
62
7
370
0
100
AcDbTrace
10
611.6352
20
289.3824
30
0
11
612.051484658
21
286.8824
31
0
12
611.218915342
22
286.8824
32
0
13
611.218915342
23
286.8824
33
0
0
MTEXT
5
B5
100
AcDbEntity
8
0
6
CONTINUOUS
62
7
370
0
100
AcDbMText
10
609.7602
20
297.465
30
0
40
2.5
41
10
71
5
72
1
1
2.4576
7
standard
210
0
220
0
230
1
50
90
73
2
44
1
0
LINE
5
B6
100
AcDbEntity
8
0
6
CONTINUOUS
62
7
370
0
100
AcDbLine
10
697.0262
20
291.84
11
610.3852
21
291.84
0
LINE
5
B7
100
AcDbEntity
8
0
6
CONTINUOUS
62
7
370
0
100
AcDbLine
10
697.0262
20
289.3824
11
610.3852
21
289.3824
0
ENDBLK
5
60
330
5E
100
AcDbEntity
8
0
100
AcDbBlockEnd
0
BLOCK
5
62
330
61
100
AcDbEntity
8
0
100
AcDbBlockBegin
2
*D8
70
1
10
0
20
0
3
*D8
1

0
LINE
5
B8
100
AcDbEntity
8
0
6
CONTINUOUS
62
7
370
0
100
AcDbLine
10
75.136
20
-267.008
11
108.416
21
-267.008
0
SOLID
5
B9
100
AcDbEntity
8
0
6
CONTINUOUS
62
7
370
0
100
AcDbTrace
10
75.136
20
-267.008
30
0
11
77.636
21
-266.591715342
31
0
12
77.636
22
-267.424284658
32
0
13
77.636
23
-267.424284658
33
0
0
SOLID
5
BA
100
AcDbEntity
8
0
6
CONTINUOUS
62
7
370
0
100
AcDbTrace
10
108.416
20
-267.008
30
0
11
105.916
21
-267.424284658
31
0
12
105.916
22
-266.591715342
32
0
13
105.916
23
-266.591715342
33
0
0
MTEXT
5
BB
100
AcDbEntity
8
0
6
CONTINUOUS
62
7
370
0
100
AcDbMText
10
91.776
20
-265.133
30
0
40
2.5
41
7.77777777778
71
5
72
1
1
33.28
7
standard
210
0
220
0
230
1
50
0
73
2
44
1
0
LINE
5
BC
100
AcDbEntity
8
0
6
CONTINUOUS
62
7
370
0
100
AcDbLine
10
75.136
20
-262.129
11
75.136
21
-268.258
0
LINE
5
BD
100
AcDbEntity
8
0
6
CONTINUOUS
62
7
370
0
100
AcDbLine
10
108.416
20
-261.873
11
108.416
21
-268.258
0
ENDBLK
5
63
330
61
100
AcDbEntity
8
0
100
AcDbBlockEnd
0
BLOCK
5
65
330
64
100
AcDbEntity
8
0
100
AcDbBlockBegin
2
*D7
70
1
10
0
20
0
3
*D7
1

0
LINE
5
BE
100
AcDbEntity
8
0
6
CONTINUOUS
62
7
370
0
100
AcDbLine
10
877.8
20
307.2
11
920
21
307.2
0
SOLID
5
BF
100
AcDbEntity
8
0
6
CONTINUOUS
62
7
370
0
100
AcDbTrace
10
877.8
20
307.2
30
0
11
880.3
21
307.616284658
31
0
12
880.3
22
306.783715342
32
0
13
880.3
23
306.783715342
33
0
0
SOLID
5
C0
100
AcDbEntity
8
0
6
CONTINUOUS
62
7
370
0
100
AcDbTrace
10
920
20
307.2
30
0
11
917.5
21
306.783715342
31
0
12
917.5
22
307.616284658
32
0
13
917.5
23
307.616284658
33
0
0
MTEXT
5
C1
100
AcDbEntity
8
0
6
CONTINUOUS
62
7
370
0
100
AcDbMText
10
898.9
20
309.075
30
0
40
2.5
41
6.11111111111
71
5
72
1
1
42.2
7
standard
210
0
220
0
230
1
50
0
73
2
44
1
0
LINE
5
C2
100
AcDbEntity
8
0
6
CONTINUOUS
62
7
370
0
100
AcDbLine
10
877.8
20
310.175
11
877.8
21
305.95
0
LINE
5
C3
100
AcDbEntity
8
0
6
CONTINUOUS
62
7
370
0
100
AcDbLine
10
920
20
310.375
11
920
21
305.95
0
ENDBLK
5
66
330
64
100
AcDbEntity
8
0
100
AcDbBlockEnd
0
BLOCK
5
68
330
67
100
AcDbEntity
8
0
100
AcDbBlockBegin
2
*D1
70
1
10
0
20
0
3
*D1
1

0
LINE
5
C4
100
AcDbEntity
8
0
6
CONTINUOUS
62
7
370
0
100
AcDbLine
10
101.318359375
20
265.76
11
84.16
21
265.76
0
SOLID
5
C5
100
AcDbEntity
8
0
6
CONTINUOUS
62
7
370
0
100
AcDbTrace
10
101.318359375
20
265.76
30
0
11
98.818359375
21
265.343715342
31
0
12
98.818359375
22
266.176284658
32
0
13
98.818359375
23
266.176284658
33
0
0
SOLID
5
C6
100
AcDbEntity
8
0
6
CONTINUOUS
62
7
370
0
100
AcDbTrace
10
84.16
20
265.76
30
0
11
86.66
21
266.176284658
31
0
12
86.66
22
265.343715342
32
0
13
86.66
23
265.343715342
33
0
0
MTEXT
5
C7
100
AcDbEntity
8
0
6
CONTINUOUS
62
7
370
0
100
AcDbMText
10
92.7391796875
20
267.635
30
0
40
2.5
41
10.8333333333
71
5
72
1
1
17.1584
7
standard
210
0
220
0
230
1
50
360
73
2
44
1
0
LINE
5
C8
100
AcDbEntity
8
0
6
CONTINUOUS
62
7
370
0
100
AcDbLine
10
101.318359375
20
253.425
11
101.318359375
21
267.01
0
LINE
5
C9
100
AcDbEntity
8
0
6
CONTINUOUS
62
7
370
0
100
AcDbLine
10
84.16
20
253.425
11
84.16
21
267.01
0
ENDBLK
5
69
330
67
100
AcDbEntity
8
0
100
AcDbBlockEnd
0
BLOCK
5
6B
330
6A
100
AcDbEntity
8
0
100
AcDbBlockBegin
2
*D16
70
1
10
0
20
0
3
*D16
1

0
LINE
5
CA
100
AcDbEntity
8
0
6
CONTINUOUS
62
7
370
0
100
AcDbLine
10
205.056
20
-204.664
11
205.056
21
-218.76
0
SOLID
5
CB
100
AcDbEntity
8
0
6
CONTINUOUS
62
7
370
0
100
AcDbTrace
10
205.056
20
-209.664
30
0
11
204.639715342
21
-207.164
31
0
12
205.472284658
22
-207.164
32
0
13
205.472284658
23
-207.164
33
0
0
SOLID
5
CC
100
AcDbEntity
8
0
6
CONTINUOUS
62
7
370
0
100
AcDbTrace
10
205.056
20
-213.76
30
0
11
205.472284658
21
-216.26
31
0
12
204.639715342
22
-216.26
32
0
13
204.639715342
23
-216.26
33
0
0
MTEXT
5
CD
100
AcDbEntity
8
0
6
CONTINUOUS
62
7
370
0
100
AcDbMText
10
203.181
20
-205.011222222
30
0
40
2.5
41
8.05555555556
71
5
72
1
1
4.096
7
standard
210
0
220
0
230
1
50
90
73
2
44
1
0
LINE
5
CE
100
AcDbEntity
8
0
6
CONTINUOUS
62
7
370
0
100
AcDbLine
10
294.799
20
-209.664
11
203.806
21
-209.664
0
LINE
5
CF
100
AcDbEntity
8
0
6
CONTINUOUS
62
7
370
0
100
AcDbLine
10
294.799
20
-213.76
11
203.806
21
-213.76
0
ENDBLK
5
6C
330
6A
100
AcDbEntity
8
0
100
AcDbBlockEnd
0
BLOCK
5
6E
330
6D
100
AcDbEntity
8
0
100
AcDbBlockBegin
2
*D19
70
1
10
0
20
0
3
*D19
1

0
LINE
5
D0
100
AcDbEntity
8
0
6
CONTINUOUS
62
7
370
0
100
AcDbLine
10
404.096
20
199.56
11
404.096
21
188.408
0
SOLID
5
D1
100
AcDbEntity
8
0
6
CONTINUOUS
62
7
370
0
100
AcDbTrace
10
404.096
20
194.56
30
0
11
403.679715342
21
197.06
31
0
12
404.512284658
22
197.06
32
0
13
404.512284658
23
197.06
33
0
0
SOLID
5
D2
100
AcDbEntity
8
0
6
CONTINUOUS
62
7
370
0
100
AcDbTrace
10
404.096
20
193.408
30
0
11
404.512284658
21
190.908
31
0
12
403.679715342
22
190.908
32
0
13
403.679715342
23
190.908
33
0
0
MTEXT
5
D3
100
AcDbEntity
8
0
6
CONTINUOUS
62
7
370
0
100
AcDbMText
10
402.221
20
198.518333333
30
0
40
2.5
41
6.66666666667
71
5
72
1
1
1.152
7
standard
210
0
220
0
230
1
50
90
73
2
44
1
0
LINE
5
D4
100
AcDbEntity
8
0
6
CONTINUOUS
62
7
370
0
100
AcDbLine
10
493.711
20
194.56
11
402.846
21
194.56
0
LINE
5
D5
100
AcDbEntity
8
0
6
CONTINUOUS
62
7
370
0
100
AcDbLine
10
493.711
20
193.408
11
402.846
21
193.408
0
ENDBLK
5
6F
330
6D
100
AcDbEntity
8
0
100
AcDbBlockEnd
0
BLOCK
5
71
330
70
100
AcDbEntity
8
0
100
AcDbBlockBegin
2
*D17
70
1
10
0
20
0
3
*D17
1

0
LINE
5
D6
100
AcDbEntity
8
0
6
CONTINUOUS
62
7
370
0
100
AcDbLine
10
6.272
20
-236.92
11
6.272
21
-248.84
0
SOLID
5
D7
100
AcDbEntity
8
0
6
CONTINUOUS
62
7
370
0
100
AcDbTrace
10
6.272
20
-241.92
30
0
11
5.85571534223
21
-239.42
31
0
12
6.68828465777
22
-239.42
32
0
13
6.68828465777
23
-239.42
33
0
0
SOLID
5
D8
100
AcDbEntity
8
0
6
CONTINUOUS
62
7
370
0
100
AcDbTrace
10
6.272
20
-243.84
30
0
11
6.68828465777
21
-246.34
31
0
12
5.85571534223
22
-246.34
32
0
13
5.85571534223
23
-246.34
33
0
0
MTEXT
5
D9
100
AcDbEntity
8
0
6
CONTINUOUS
62
7
370
0
100
AcDbMText
10
4.397
20
-238.656111111
30
0
40
2.5
41
5.27777777778
71
5
72
1
1
1.92
7
standard
210
0
220
0
230
1
50
90
73
2
44
1
0
LINE
5
DA
100
AcDbEntity
8
0
6
CONTINUOUS
62
7
370
0
100
AcDbLine
10
91.663
20
-241.92
11
5.022
21
-241.92
0
LINE
5
DB
100
AcDbEntity
8
0
6
CONTINUOUS
62
7
370
0
100
AcDbLine
10
91.535
20
-243.84
11
5.022
21
-243.84
0
ENDBLK
5
72
330
70
100
AcDbEntity
8
0
100
AcDbBlockEnd
0
BLOCK
5
74
330
73
100
AcDbEntity
8
0
100
AcDbBlockBegin
2
*D14
70
1
10
0
20
0
3
*D14
1

0
LINE
5
DC
100
AcDbEntity
8
0
6
CONTINUOUS
62
7
370
0
100
AcDbLine
10
613.44
20
-146.4
11
613.44
21
-156
0
SOLID
5
DD
100
AcDbEntity
8
0
6
CONTINUOUS
62
7
370
0
100
AcDbTrace
10
613.44
20
-146.4
30
0
11
613.856284658
21
-148.9
31
0
12
613.023715342
22
-148.9
32
0
13
613.023715342
23
-148.9
33
0
0
SOLID
5
DE
100
AcDbEntity
8
0
6
CONTINUOUS
62
7
370
0
100
AcDbTrace
10
613.44
20
-156
30
0
11
613.023715342
21
-153.5
31
0
12
613.856284658
22
-153.5
32
0
13
613.856284658
23
-153.5
33
0
0
MTEXT
5
DF
100
AcDbEntity
8
0
6
CONTINUOUS
62
7
370
0
100
AcDbMText
10
611.565
20
-151.2
30
0
40
2.5
41
3.88888888889
71
5
72
1
1
9.6
7
standard
210
0
220
0
230
1
50
90
73
2
44
1
0
LINE
5
E0
100
AcDbEntity
8
0
6
CONTINUOUS
62
7
370
0
100
AcDbLine
10
691.855
20
-146.4
11
612.19
21
-146.4
0
LINE
5
E1
100
AcDbEntity
8
0
6
CONTINUOUS
62
7
370
0
100
AcDbLine
10
691.855
20
-156
11
612.19
21
-156
0
ENDBLK
5
75
330
73
100
AcDbEntity
8
0
100
AcDbBlockEnd
0
BLOCK
5
77
330
76
100
AcDbEntity
8
0
100
AcDbBlockBegin
2
*D9
70
1
10
0
20
0
3
*D9
1

0
LINE
5
E2
100
AcDbEntity
8
0
6
CONTINUOUS
62
7
370
0
100
AcDbLine
10
275.456
20
-238.592
11
315.264
21
-238.592
0
SOLID
5
E3
100
AcDbEntity
8
0
6
CONTINUOUS
62
7
370
0
100
AcDbTrace
10
275.456
20
-238.592
30
0
11
277.956
21
-238.175715342
31
0
12
277.956
22
-239.008284658
32
0
13
277.956
23
-239.008284658
33
0
0
SOLID
5
E4
100
AcDbEntity
8
0
6
CONTINUOUS
62
7
370
0
100
AcDbTrace
10
315.264
20
-238.592
30
0
11
312.764
21
-239.008284658
31
0
12
312.764
22
-238.175715342
32
0
13
312.764
23
-238.175715342
33
0
0
MTEXT
5
E5
100
AcDbEntity
8
0
6
CONTINUOUS
62
7
370
0
100
AcDbMText
10
295.36
20
-236.717
30
0
40
2.5
41
9.72222222222
71
5
72
1
1
39.808
7
standard
210
0
220
0
230
1
50
0
73
2
44
1
0
LINE
5
E6
100
AcDbEntity
8
0
6
CONTINUOUS
62
7
370
0
100
AcDbLine
10
275.456
20
-233.841
11
275.456
21
-239.842
0
LINE
5
E7
100
AcDbEntity
8
0
6
CONTINUOUS
62
7
370
0
100
AcDbLine
10
315.264
20
-233.713
11
315.264
21
-239.842
0
ENDBLK
5
78
330
76
100
AcDbEntity
8
0
100
AcDbBlockEnd
0
BLOCK
5
7A
330
79
100
AcDbEntity
8
0
100
AcDbBlockBegin
2
*D6
70
1
10
0
20
0
3
*D6
1

0
LINE
5
E8
100
AcDbEntity
8
0
6
CONTINUOUS
62
7
370
0
100
AcDbLine
10
680.448
20
266.624
11
715.392
21
266.624
0
SOLID
5
E9
100
AcDbEntity
8
0
6
CONTINUOUS
62
7
370
0
100
AcDbTrace
10
680.448
20
266.624
30
0
11
682.948
21
267.040284658
31
0
12
682.948
22
266.207715342
32
0
13
682.948
23
266.207715342
33
0
0
SOLID
5
EA
100
AcDbEntity
8
0
6
CONTINUOUS
62
7
370
0
100
AcDbTrace
10
715.392
20
266.624
30
0
11
712.892
21
266.207715342
31
0
12
712.892
22
267.040284658
32
0
13
712.892
23
267.040284658
33
0
0
MTEXT
5
EB
100
AcDbEntity
8
0
6
CONTINUOUS
62
7
370
0
100
AcDbMText
10
697.92
20
268.499
30
0
40
2.5
41
10.5555555556
71
5
72
1
1
34.944
7
standard
210
0
220
0
230
1
50
0
73
2
44
1
0
LINE
5
EC
100
AcDbEntity
8
0
6
CONTINUOUS
62
7
370
0
100
AcDbLine
10
680.448
20
271.759
11
680.448
21
265.374
0
LINE
5
ED
100
AcDbEntity
8
0
6
CONTINUOUS
62
7
370
0
100
AcDbLine
10
715.392
20
271.631
11
715.392
21
265.374
0
ENDBLK
5
7B
330
79
100
AcDbEntity
8
0
100
AcDbBlockEnd
0
BLOCK
5
7D
330
7C
100
AcDbEntity
8
0
100
AcDbBlockBegin
2
*D13
70
1
10
0
20
0
3
*D13
1

0
LINE
5
EE
100
AcDbEntity
8
0
6
CONTINUOUS
62
7
370
0
100
AcDbLine
10
902.56
20
-119.8
11
902.56
21
-133.32
0
SOLID
5
EF
100
AcDbEntity
8
0
6
CONTINUOUS
62
7
370
0
100
AcDbTrace
10
902.56
20
-124.8
30
0
11
902.143715342
21
-122.3
31
0
12
902.976284658
22
-122.3
32
0
13
902.976284658
23
-122.3
33
0
0
SOLID
5
F0
100
AcDbEntity
8
0
6
CONTINUOUS
62
7
370
0
100
AcDbTrace
10
902.56
20
-128.32
30
0
11
902.976284658
21
-130.82
31
0
12
902.143715342
22
-130.82
32
0
13
902.143715342
23
-130.82
33
0
0
MTEXT
5
F1
100
AcDbEntity
8
0
6
CONTINUOUS
62
7
370
0
100
AcDbMText
10
900.685
20
-121.258333333
30
0
40
2.5
41
5.83333333333
71
5
72
1
1
3.52
7
standard
210
0
220
0
230
1
50
90
73
2
44
1
0
LINE
5
F2
100
AcDbEntity
8
0
6
CONTINUOUS
62
7
370
0
100
AcDbLine
10
896.145
20
-124.8
11
903.81
21
-124.8
0
LINE
5
F3
100
AcDbEntity
8
0
6
CONTINUOUS
62
7
370
0
100
AcDbLine
10
895.985
20
-128.32
11
903.81
21
-128.32
0
ENDBLK
5
7E
330
7C
100
AcDbEntity
8
0
100
AcDbBlockEnd
0
BLOCK
5
80
330
7F
100
AcDbEntity
8
0
100
AcDbBlockBegin
2
*D11
70
1
10
0
20
0
3
*D11
1

0
LINE
5
F4
100
AcDbEntity
8
0
6
CONTINUOUS
62
7
370
0
100
AcDbLine
10
673
20
-175.8
11
709.4
21
-175.8
0
SOLID
5
F5
100
AcDbEntity
8
0
6
CONTINUOUS
62
7
370
0
100
AcDbTrace
10
673
20
-175.8
30
0
11
675.5
21
-175.383715342
31
0
12
675.5
22
-176.216284658
32
0
13
675.5
23
-176.216284658
33
0
0
SOLID
5
F6
100
AcDbEntity
8
0
6
CONTINUOUS
62
7
370
0
100
AcDbTrace
10
709.4
20
-175.8
30
0
11
706.9
21
-176.216284658
31
0
12
706.9
22
-175.383715342
32
0
13
706.9
23
-175.383715342
33
0
0
MTEXT
5
F7
100
AcDbEntity
8
0
6
CONTINUOUS
62
7
370
0
100
AcDbMText
10
691.2
20
-173.925
30
0
40
2.5
41
6.11111111111
71
5
72
1
1
36.4
7
standard
210
0
220
0
230
1
50
0
73
2
44
1
0
LINE
5
F8
100
AcDbEntity
8
0
6
CONTINUOUS
62
7
370
0
100
AcDbLine
10
673
20
-173.825
11
673
21
-177.05
0
LINE
5
F9
100
AcDbEntity
8
0
6
CONTINUOUS
62
7
370
0
100
AcDbLine
10
709.4
20
-173.825
11
709.4
21
-177.05
0
ENDBLK
5
81
330
7F
100
AcDbEntity
8
0
100
AcDbBlockEnd
0
ENDSEC
0
SECTION
2
ENTITIES
0
IMAGE
5
FC
100
AcDbEntity
8
0
6
ByLayer
62
256
370
-1
100
AcDbRasterImage
10
-24.5075
20
30.555
30
0
11
1
21
0
31
0
12
6.12323399574e-17
22
1
32
0
13
173
23
370
340
FA
70
1
280
0
281
50
282
50
283
0
360
FB
0
IMAGE
5
FF
100
AcDbEntity
8
0
6
ByLayer
62
256
370
-1
100
AcDbRasterImage
10
818.073749542
20
-436.60402298
30
0
11
1
21
0
31
0
12
6.12323399574e-17
22
1
32
0
13
177
23
390
340
FD
70
1
280
0
281
50
282
50
283
0
360
FE
0
IMAGE
5
102
100
AcDbEntity
8
0
6
ByLayer
62
256
370
-1
100
AcDbRasterImage
10
616.908073425
20
-436.60402298
30
0
11
1
21
0
31
0
12
6.12323399574e-17
22
1
32
0
13
170
23
378
340
100
70
1
280
0
281
50
282
50
283
0
360
101
0
IMAGE
5
105
100
AcDbEntity
8
0
6
ByLayer
62
256
370
-1
100
AcDbRasterImage
10
415.742397308
20
-436.60402298
30
0
11
1
21
0
31
0
12
6.12323399574e-17
22
1
32
0
13
177
23
363
340
103
70
1
280
0
281
50
282
50
283
0
360
104
0
IMAGE
5
108
100
AcDbEntity
8
0
6
ByLayer
62
256
370
-1
100
AcDbRasterImage
10
208.616256714
20
-438.094139099
30
0
11
1
21
0
31
0
12
6.12323399574e-17
22
1
32
0
13
188
23
348
340
106
70
1
280
0
281
50
282
50
283
0
360
107
0
IMAGE
5
10B
100
AcDbEntity
8
0
6
ByLayer
62
256
370
-1
100
AcDbRasterImage
10
7.45058059692
20
-439.584255219
30
0
11
1
21
0
31
0
12
6.12323399574e-17
22
1
32
0
13
178
23
363
340
109
70
1
280
0
281
50
282
50
283
0
360
10A
0
IMAGE
5
10E
100
AcDbEntity
8
0
6
ByLayer
62
256
370
-1
100
AcDbRasterImage
10
820.159912109
20
32.4249267578
30
0
11
1
21
0
31
0
12
6.12323399574e-17
22
1
32
0
13
179
23
376
340
10C
70
1
280
0
281
50
282
50
283
0
360
10D
0
IMAGE
5
111
100
AcDbEntity
8
0
6
ByLayer
62
256
370
-1
100
AcDbRasterImage
10
614.166259766
20
30.517578125
30
0
11
1
21
0
31
0
12
6.12323399574e-17
22
1
32
0
13
178
23
371
340
10F
70
1
280
0
281
50
282
50
283
0
360
110
0
IMAGE
5
114
100
AcDbEntity
8
0
6
ByLayer
62
256
370
-1
100
AcDbRasterImage
10
407.218933105
20
26.7028808594
30
0
11
1
21
0
31
0
12
6.12323399574e-17
22
1
32
0
13
178
23
329
340
112
70
1
280
0
281
50
282
50
283
0
360
113
0
IMAGE
5
117
100
AcDbEntity
8
0
6
ByLayer
62
256
370
-1
100
AcDbRasterImage
10
208.854675293
20
27.6565551758
30
0
11
1
21
0
31
0
12
6.12323399574e-17
22
1
32
0
13
170
23
371
340
115
70
1
280
0
281
50
282
50
283
0
360
116
0
DIMENSION
5
118
100
AcDbEntity
8
0
6
ByLayer
62
256
370
-1
100
AcDbDimension
2
*D1
10
84.16
20
265.76
30
0
11
92.7391796875
21
267.635
31
0
70
32
71
5
3
Standard
53
0
210
0
220
0
230
1
100
AcDbAlignedDimension
13
101.318359375
23
252.8
33
0
14
84.16
24
252.8
34
0
100
AcDbRotatedDimension
0
DIMENSION
5
119
100
AcDbEntity
8
0
6
ByLayer
62
256
370
-1
100
AcDbDimension
2
*D2
10
56.9344
20
253.0304
30
0
11
55.0594
21
254.6688
31
0
70
32
71
5
3
Standard
53
0
210
0
220
0
230
1
100
AcDbAlignedDimension
13
52.0192
23
256.3072
33
0
14
51.9168
24
253.0304
34
0
50
90
100
AcDbRotatedDimension
0
DIMENSION
5
11A
100
AcDbEntity
8
0
6
ByLayer
62
256
370
-1
100
AcDbDimension
2
*D3
10
69.2224
20
228.4544
30
0
11
51.5072
21
230.3294
31
0
70
32
71
5
3
Standard
53
0
210
0
220
0
230
1
100
AcDbAlignedDimension
13
33.792
23
236.9536
33
0
14
69.2224
24
237.056
34
0
100
AcDbRotatedDimension
0
DIMENSION
5
11B
100
AcDbEntity
8
0
6
ByLayer
62
256
370
-1
100
AcDbDimension
2
*D4
10
306.176
20
284.2624
30
0
11
285.7472
21
286.1374
31
0
70
32
71
5
3
Standard
53
0
210
0
220
0
230
1
100
AcDbAlignedDimension
13
265.3184
23
296.1408
33
0
14
306.176
24
296.2432
34
0
100
AcDbRotatedDimension
0
DIMENSION
5
11C
100
AcDbEntity
8
0
6
ByLayer
62
256
370
-1
100
AcDbDimension
2
*D5
10
513.44
20
167.04
30
0
11
494.88
21
168.915
31
0
70
32
71
5
3
Standard
53
0
210
0
220
0
230
1
100
AcDbAlignedDimension
13
476.32
23
174.56
33
0
14
513.44
24
174.24
34
0
100
AcDbRotatedDimension
0
DIMENSION
5
11D
100
AcDbEntity
8
0
6
ByLayer
62
256
370
-1
100
AcDbDimension
2
*D6
10
715.392
20
266.624
30
0
11
697.92
21
268.499
31
0
70
32
71
5
3
Standard
53
0
210
0
220
0
230
1
100
AcDbAlignedDimension
13
680.448
23
272.384
33
0
14
715.392
24
272.256
34
0
100
AcDbRotatedDimension
0
DIMENSION
5
11E
100
AcDbEntity
8
0
6
ByLayer
62
256
370
-1
100
AcDbDimension
2
*D7
10
920
20
307.2
30
0
11
898.9
21
309.075
31
0
70
32
71
5
3
Standard
53
0
210
0
220
0
230
1
100
AcDbAlignedDimension
13
877.8
23
310.8
33
0
14
920
24
311
34
0
100
AcDbRotatedDimension
0
DIMENSION
5
11F
100
AcDbEntity
8
0
6
ByLayer
62
256
370
-1
100
AcDbDimension
2
*D8
10
108.416
20
-267.008
30
0
11
91.776
21
-265.133
31
0
70
32
71
5
3
Standard
53
0
210
0
220
0
230
1
100
AcDbAlignedDimension
13
75.136
23
-261.504
33
0
14
108.416
24
-261.248
34
0
100
AcDbRotatedDimension
0
DIMENSION
5
120
100
AcDbEntity
8
0
6
ByLayer
62
256
370
-1
100
AcDbDimension
2
*D9
10
315.264
20
-238.592
30
0
11
295.36
21
-236.717
31
0
70
32
71
5
3
Standard
53
0
210
0
220
0
230
1
100
AcDbAlignedDimension
13
275.456
23
-233.216
33
0
14
315.264
24
-233.088
34
0
100
AcDbRotatedDimension
0
DIMENSION
5
121
100
AcDbEntity
8
0
6
ByLayer
62
256
370
-1
100
AcDbDimension
2
*D10
10
519.4
20
-209
30
0
11
501
21
-207.125
31
0
70
32
71
5
3
Standard
53
0
210
0
220
0
230
1
100
AcDbAlignedDimension
13
482.6
23
-202.2
33
0
14
519.4
24
-202
34
0
100
AcDbRotatedDimension
0
DIMENSION
5
122
100
AcDbEntity
8
0
6
ByLayer
62
256
370
-1
100
AcDbDimension
2
*D11
10
709.4
20
-175.8
30
0
11
691.2
21
-173.925
31
0
70
32
71
5
3
Standard
53
0
210
0
220
0
230
1
100
AcDbAlignedDimension
13
673
23
-173.2
33
0
14
709.4
24
-173.2
34
0
100
AcDbRotatedDimension
0
DIMENSION
5
123
100
AcDbEntity
8
0
6
ByLayer
62
256
370
-1
100
AcDbDimension
2
*D12
10
918
20
-154.4
30
0
11
896.5
21
-152.525
31
0
70
32
71
5
3
Standard
53
0
210
0
220
0
230
1
100
AcDbAlignedDimension
13
875
23
-149.6
33
0
14
918
24
-149.8
34
0
100
AcDbRotatedDimension
0
DIMENSION
5
124
100
AcDbEntity
8
0
6
ByLayer
62
256
370
-1
100
AcDbDimension
2
*D13
10
902.56
20
-128.32
30
0
11
900.685
21
-126.56
31
0
70
32
71
5
3
Standard
53
0
210
0
220
0
230
1
100
AcDbAlignedDimension
13
895.52
23
-124.8
33
0
14
895.36
24
-128.32
34
0
50
90
100
AcDbRotatedDimension
0
DIMENSION
5
125
100
AcDbEntity
8
0
6
ByLayer
62
256
370
-1
100
AcDbDimension
2
*D14
10
613.44
20
-156
30
0
11
611.565
21
-151.2
31
0
70
32
71
5
3
Standard
53
0
210
0
220
0
230
1
100
AcDbAlignedDimension
13
692.48
23
-146.4
33
0
14
692.48
24
-156
34
0
50
90
100
AcDbRotatedDimension
0
DIMENSION
5
126
100
AcDbEntity
8
0
6
ByLayer
62
256
370
-1
100
AcDbDimension
2
*D15
10
412.96
20
-183.68
30
0
11
411.085
21
-177.28
31
0
70
32
71
5
3
Standard
53
0
210
0
220
0
230
1
100
AcDbAlignedDimension
13
501.12
23
-170.88
33
0
14
501.28
24
-183.68
34
0
50
90
100
AcDbRotatedDimension
0
DIMENSION
5
127
100
AcDbEntity
8
0
6
ByLayer
62
256
370
-1
100
AcDbDimension
2
*D16
10
205.056
20
-213.76
30
0
11
203.181
21
-211.712
31
0
70
32
71
5
3
Standard
53
0
210
0
220
0
230
1
100
AcDbAlignedDimension
13
295.424
23
-209.664
33
0
14
295.424
24
-213.76
34
0
50
90
100
AcDbRotatedDimension
0
DIMENSION
5
128
100
AcDbEntity
8
0
6
ByLayer
62
256
370
-1
100
AcDbDimension
2
*D17
10
6.272
20
-243.84
30
0
11
4.397
21
-242.88
31
0
70
32
71
5
3
Standard
53
0
210
0
220
0
230
1
100
AcDbAlignedDimension
13
92.288
23
-241.92
33
0
14
92.16
24
-243.84
34
0
50
90
100
AcDbRotatedDimension
0
DIMENSION
5
129
100
AcDbEntity
8
0
6
ByLayer
62
256
370
-1
100
AcDbDimension
2
*D18
10
611.6352
20
289.3824
30
0
11
609.7602
21
290.6112
31
0
70
32
71
5
3
Standard
53
0
210
0
220
0
230
1
100
AcDbAlignedDimension
13
697.6512
23
291.84
33
0
14
697.6512
24
289.3824
34
0
50
90
100
AcDbRotatedDimension
0
DIMENSION
5
12A
100
AcDbEntity
8
0
6
ByLayer
62
256
370
-1
100
AcDbDimension
2
*D19
10
404.096
20
193.408
30
0
11
402.221
21
193.984
31
0
70
32
71
5
3
Standard
53
0
210
0
220
0
230
1
100
AcDbAlignedDimension
13
494.336
23
194.56
33
0
14
494.336
24
193.408
34
0
50
90
100
AcDbRotatedDimension
0
DIMENSION
5
12B
100
AcDbEntity
8
0
6
ByLayer
62
256
370
-1
100
AcDbDimension
2
*D20
10
207.2576
20
317.0304
30
0
11
205.3826
21
319.0272
31
0
70
32
71
5
3
Standard
53
0
210
0
220
0
230
1
100
AcDbAlignedDimension
13
286.0032
23
321.024
33
0
14
285.9008
24
317.0304
34
0
50
90
100
AcDbRotatedDimension
0
ENDSEC
0
SECTION
2
OBJECTS
0
DICTIONARY
5
C
330
0
100
AcDbDictionary
281
1
3
ACAD_GROUP
350
D
3
ACAD_IMAGE_DICT
350
12C
0
DICTIONARY
5
D
330
C
100
AcDbDictionary
281
1
0
IMAGEDEF_REACTOR
5
FB
330
FC
100
AcDbRasterImageDefReactor
90
2
330
FC
0
IMAGEDEF_REACTOR
5
FE
330
FF
100
AcDbRasterImageDefReactor
90
2
330
FF
0
IMAGEDEF_REACTOR
5
101
330
102
100
AcDbRasterImageDefReactor
90
2
330
102
0
IMAGEDEF_REACTOR
5
104
330
105
100
AcDbRasterImageDefReactor
90
2
330
105
0
IMAGEDEF_REACTOR
5
107
330
108
100
AcDbRasterImageDefReactor
90
2
330
108
0
IMAGEDEF_REACTOR
5
10A
330
10B
100
AcDbRasterImageDefReactor
90
2
330
10B
0
IMAGEDEF_REACTOR
5
10D
330
10E
100
AcDbRasterImageDefReactor
90
2
330
10E
0
IMAGEDEF_REACTOR
5
110
330
111
100
AcDbRasterImageDefReactor
90
2
330
111
0
IMAGEDEF_REACTOR
5
113
330
114
100
AcDbRasterImageDefReactor
90
2
330
114
0
IMAGEDEF_REACTOR
5
116
330
117
100
AcDbRasterImageDefReactor
90
2
330
117
0
DICTIONARY
5
12C
330
C
100
AcDbDictionary
281
1
3
1
350
FA
3
10
350
FD
3
9
350
100
3
8
350
103
3
7
350
106
3
6
350
109
3
5
350
10C
3
4
350
10F
3
3
350
112
3
2
350
115
0
IMAGEDEF
5
FA
102
{ACAD_REACTORS
330
FB
102
}
100
AcDbRasterImageDef
90
0
1
/home/vilela/Dropbox/Doctorate/papers/icmf/full-paper/validation/experiment-gap-variation/1.png
10
173
20
370
11
1
21
1
280
1
281
0
0
IMAGEDEF
5
FD
102
{ACAD_REACTORS
330
FE
102
}
100
AcDbRasterImageDef
90
0
1
/home/vilela/Dropbox/Doctorate/papers/icmf/full-paper/validation/experiment-gap-variation/10.png
10
177
20
390
11
1
21
1
280
1
281
0
0
IMAGEDEF
5
100
102
{ACAD_REACTORS
330
101
102
}
100
AcDbRasterImageDef
90
0
1
/home/vilela/Dropbox/Doctorate/papers/icmf/full-paper/validation/experiment-gap-variation/9.png
10
170
20
378
11
1
21
1
280
1
281
0
0
IMAGEDEF
5
103
102
{ACAD_REACTORS
330
104
102
}
100
AcDbRasterImageDef
90
0
1
/home/vilela/Dropbox/Doctorate/papers/icmf/full-paper/validation/experiment-gap-variation/8.png
10
177
20
363
11
1
21
1
280
1
281
0
0
IMAGEDEF
5
106
102
{ACAD_REACTORS
330
107
102
}
100
AcDbRasterImageDef
90
0
1
/home/vilela/Dropbox/Doctorate/papers/icmf/full-paper/validation/experiment-gap-variation/7.png
10
188
20
348
11
1
21
1
280
1
281
0
0
IMAGEDEF
5
109
102
{ACAD_REACTORS
330
10A
102
}
100
AcDbRasterImageDef
90
0
1
/home/vilela/Dropbox/Doctorate/papers/icmf/full-paper/validation/experiment-gap-variation/6.png
10
178
20
363
11
1
21
1
280
1
281
0
0
IMAGEDEF
5
10C
102
{ACAD_REACTORS
330
10D
102
}
100
AcDbRasterImageDef
90
0
1
/home/vilela/Dropbox/Doctorate/papers/icmf/full-paper/validation/experiment-gap-variation/5.png
10
179
20
376
11
1
21
1
280
1
281
0
0
IMAGEDEF
5
10F
102
{ACAD_REACTORS
330
110
102
}
100
AcDbRasterImageDef
90
0
1
/home/vilela/Dropbox/Doctorate/papers/icmf/full-paper/validation/experiment-gap-variation/4.png
10
178
20
371
11
1
21
1
280
1
281
0
0
IMAGEDEF
5
112
102
{ACAD_REACTORS
330
113
102
}
100
AcDbRasterImageDef
90
0
1
/home/vilela/Dropbox/Doctorate/papers/icmf/full-paper/validation/experiment-gap-variation/3.png
10
178
20
329
11
1
21
1
280
1
281
0
0
IMAGEDEF
5
115
102
{ACAD_REACTORS
330
116
102
}
100
AcDbRasterImageDef
90
0
1
/home/vilela/Dropbox/Doctorate/papers/icmf/full-paper/validation/experiment-gap-variation/2.png
10
170
20
371
11
1
21
1
280
1
281
0
0
ENDSEC
0
EOF
