999
dxfrw 0.5.10
0
SECTION
2
HEADER
9
$ACADVER
1
AC1021
9
$HANDSEED
5
20000
9
$DWGCODEPAGE
3
ANSI_1252
9
$INSBASE
10
0
20
0
30
0
9
$EXTMIN
10
4.5
20
-2714.2732506
30
0
9
$EXTMAX
10
5734.89833809
20
813.25
30
0
9
$LIMMIN
10
0
20
0
9
$LIMMAX
10
420
20
297
9
$ORTHOMODE
70
0
9
$LTSCALE
40
1
9
$TEXTSTYLE
7
STANDARD
9
$CLAYER
8
0
9
$DIMASZ
40
2.5
9
$DIMLFAC
40
1
9
$DIMSCALE
40
1
9
$DIMEXO
40
0.625
9
$DIMEXE
40
1.25
9
$DIMTXT
40
2.5
9
$DIMTSZ
40
0
9
$DIMAUNIT
70
0
9
$DIMADEC
70
0
9
$DIMLUNIT
70
2
9
$DIMSTYLE
2
STANDARD
9
$DIMGAP
40
0.625
9
$DIMTIH
70
0
9
$LUNITS
70
2
9
$LUPREC
70
4
9
$AUNITS
70
0
9
$AUPREC
70
2
9
$SPLINESEGS
70
8
9
$GRIDMODE
70
1
9
$SNAPSTYLE
70
0
9
$PINSBASE
10
0
20
0
30
0
9
$PLIMMIN
10
0
20
0
9
$PLIMMAX
10
210
20
297
9
$INSUNITS
70
4
9
$PSVPSCALE
40
1
0
ENDSEC
0
SECTION
2
CLASSES
0
ENDSEC
0
SECTION
2
TABLES
0
TABLE
2
VPORT
5
8
330
0
100
AcDbSymbolTable
70
1
0
VPORT
5
31
330
2
100
AcDbSymbolTableRecord
100
AcDbViewportTableRecord
2
*ACTIVE
70
0
10
0
20
0
11
1
21
1
12
2119
22
-1032.375
13
0
23
0
14
10
24
10
15
10
25
10
16
0
26
0
36
1
17
0
27
0
37
0
40
190
41
2.00789473684
42
50
43
0
44
0
50
0
51
0
71
0
72
100
73
1
74
3
75
0
76
1
77
0
78
0
281
0
65
1
110
0
120
0
130
0
111
1
121
0
131
0
112
0
122
1
132
0
79
0
146
0
348
10020
60
7
61
5
292
1
282
1
141
0
142
0
63
250
421
3358443
0
ENDTAB
0
TABLE
2
LTYPE
5
5
330
0
100
AcDbSymbolTable
70
4
0
LTYPE
5
14
330
5
100
AcDbSymbolTableRecord
100
AcDbLinetypeTableRecord
2
ByBlock
70
0
3

72
65
73
0
40
0
0
LTYPE
5
15
330
5
100
AcDbSymbolTableRecord
100
AcDbLinetypeTableRecord
2
ByLayer
70
0
3

72
65
73
0
40
0
0
LTYPE
5
16
330
5
100
AcDbSymbolTableRecord
100
AcDbLinetypeTableRecord
2
Continuous
70
0
3
Solid line
72
65
73
0
40
0
0
LTYPE
5
32
330
5
100
AcDbSymbolTableRecord
100
AcDbLinetypeTableRecord
2
DOT
70
0
3
Dot . . . . . . . . . . . . . . . . . . . . . .
72
65
73
2
40
6.35
49
0
74
0
49
-6.35
74
0
0
LTYPE
5
33
330
5
100
AcDbSymbolTableRecord
100
AcDbLinetypeTableRecord
2
DOT2
70
0
3
Dot (.5x) .....................................
72
65
73
2
40
3.175
49
0
74
0
49
-3.175
74
0
0
LTYPE
5
34
330
5
100
AcDbSymbolTableRecord
100
AcDbLinetypeTableRecord
2
DOTX2
70
0
3
Dot (2x) .  .  .  .  .  .  .  .  .  .  .  .  .
72
65
73
2
40
12.7
49
0
74
0
49
-12.7
74
0
0
LTYPE
5
35
330
5
100
AcDbSymbolTableRecord
100
AcDbLinetypeTableRecord
2
DASHED
70
0
3
Dot . . . . . . . . . . . . . . . . . . . . . .
72
65
73
2
40
19.05
49
12.7
74
0
49
-6.35
74
0
0
LTYPE
5
36
330
5
100
AcDbSymbolTableRecord
100
AcDbLinetypeTableRecord
2
DASHED2
70
0
3
Dashed (.5x) _ _ _ _ _ _ _ _ _ _ _ _ _ _ _ _ _
72
65
73
2
40
9.525
49
6.35
74
0
49
-3.175
74
0
0
LTYPE
5
37
330
5
100
AcDbSymbolTableRecord
100
AcDbLinetypeTableRecord
2
DASHEDX2
70
0
3
Dashed (2x) ____  ____  ____  ____  ____  ___
72
65
73
2
40
38.1
49
25.4
74
0
49
-12.7
74
0
0
LTYPE
5
38
330
5
100
AcDbSymbolTableRecord
100
AcDbLinetypeTableRecord
2
DASHDOT
70
0
3
Dash dot __ . __ . __ . __ . __ . __ . __ . __
72
65
73
4
40
25.4
49
12.7
74
0
49
-6.35
74
0
49
0
74
0
49
-6.35
74
0
0
LTYPE
5
39
330
5
100
AcDbSymbolTableRecord
100
AcDbLinetypeTableRecord
2
DASHDOT2
70
0
3
Dash dot (.5x) _._._._._._._._._._._._._._._.
72
65
73
4
40
12.7
49
6.35
74
0
49
-3.175
74
0
49
0
74
0
49
-3.175
74
0
0
LTYPE
5
3A
330
5
100
AcDbSymbolTableRecord
100
AcDbLinetypeTableRecord
2
DASHDOTX2
70
0
3
Dash dot (2x) ____  .  ____  .  ____  .  ___
72
65
73
4
40
50.8
49
25.4
74
0
49
-12.7
74
0
49
0
74
0
49
-12.7
74
0
0
LTYPE
5
3B
330
5
100
AcDbSymbolTableRecord
100
AcDbLinetypeTableRecord
2
DIVIDE
70
0
3
Divide ____ . . ____ . . ____ . . ____ . . ____
72
65
73
6
40
31.75
49
12.7
74
0
49
-6.35
74
0
49
0
74
0
49
-6.35
74
0
49
0
74
0
49
-6.35
74
0
0
LTYPE
5
3C
330
5
100
AcDbSymbolTableRecord
100
AcDbLinetypeTableRecord
2
DIVIDE2
70
0
3
Divide (.5x) __..__..__..__..__..__..__..__.._
72
65
73
6
40
15.875
49
6.35
74
0
49
-3.175
74
0
49
0
74
0
49
-3.175
74
0
49
0
74
0
49
-3.175
74
0
0
LTYPE
5
3D
330
5
100
AcDbSymbolTableRecord
100
AcDbLinetypeTableRecord
2
DIVIDEX2
70
0
3
Divide (2x) ________  .  .  ________  .  .  _
72
65
73
6
40
63.5
49
25.4
74
0
49
-12.7
74
0
49
0
74
0
49
-12.7
74
0
49
0
74
0
49
-12.7
74
0
0
LTYPE
5
3E
330
5
100
AcDbSymbolTableRecord
100
AcDbLinetypeTableRecord
2
BORDER
70
0
3
Border __ __ . __ __ . __ __ . __ __ . __ __ .
72
65
73
6
40
44.45
49
12.7
74
0
49
-6.35
74
0
49
12.7
74
0
49
-6.35
74
0
49
0
74
0
49
-6.35
74
0
0
LTYPE
5
3F
330
5
100
AcDbSymbolTableRecord
100
AcDbLinetypeTableRecord
2
BORDER2
70
0
3
Border (.5x) __.__.__.__.__.__.__.__.__.__.__.
72
65
73
6
40
22.225
49
6.35
74
0
49
-3.175
74
0
49
6.35
74
0
49
-3.175
74
0
49
0
74
0
49
-3.175
74
0
0
LTYPE
5
40
330
5
100
AcDbSymbolTableRecord
100
AcDbLinetypeTableRecord
2
BORDERX2
70
0
3
Border (2x) ____  ____  .  ____  ____  .  ___
72
65
73
6
40
88.9
49
25.4
74
0
49
-12.7
74
0
49
25.4
74
0
49
-12.7
74
0
49
0
74
0
49
-12.7
74
0
0
LTYPE
5
41
330
5
100
AcDbSymbolTableRecord
100
AcDbLinetypeTableRecord
2
CENTER
70
0
3
Center ____ _ ____ _ ____ _ ____ _ ____ _ ____
72
65
73
4
40
50.8
49
31.75
74
0
49
-6.35
74
0
49
6.35
74
0
49
-6.35
74
0
0
LTYPE
5
42
330
5
100
AcDbSymbolTableRecord
100
AcDbLinetypeTableRecord
2
CENTER2
70
0
3
Center (.5x) ___ _ ___ _ ___ _ ___ _ ___ _ ___
72
65
73
4
40
28.575
49
19.05
74
0
49
-3.175
74
0
49
3.175
74
0
49
-3.175
74
0
0
LTYPE
5
43
330
5
100
AcDbSymbolTableRecord
100
AcDbLinetypeTableRecord
2
CENTERX2
70
0
3
Center (2x) ________  __  ________  __  _____
72
65
73
4
40
101.6
49
63.5
74
0
49
-12.7
74
0
49
12.7
74
0
49
-12.7
74
0
0
ENDTAB
0
TABLE
2
LAYER
5
2
330
0
100
AcDbSymbolTable
70
1
0
LAYER
5
10
330
2
100
AcDbSymbolTableRecord
100
AcDbLayerTableRecord
2
0
70
0
62
7
6
CONTINUOUS
370
0
390
F
0
ENDTAB
0
TABLE
2
STYLE
5
3
330
0
100
AcDbSymbolTable
70
3
0
STYLE
5
44
330
2
100
AcDbSymbolTableRecord
100
AcDbTextStyleTableRecord
2
Standard
70
0
40
0
41
1
50
0
71
0
42
1
3
txt
4

0
ENDTAB
0
TABLE
2
VIEW
5
6
330
0
100
AcDbSymbolTable
70
0
0
ENDTAB
0
TABLE
2
UCS
5
7
330
0
100
AcDbSymbolTable
70
0
0
ENDTAB
0
TABLE
2
APPID
5
9
330
0
100
AcDbSymbolTable
70
1
0
APPID
5
12
330
9
100
AcDbSymbolTableRecord
100
AcDbRegAppTableRecord
2
ACAD
70
0
0
ENDTAB
0
TABLE
2
DIMSTYLE
5
A
330
0
100
AcDbSymbolTable
70
1
100
AcDbDimStyleTable
71
1
0
DIMSTYLE
105
45
330
A
100
AcDbSymbolTableRecord
100
AcDbDimStyleTableRecord
2
Standard
70
0
40
1
41
2.5
42
0.625
43
0.38
44
1.25
45
0
46
0
47
0
48
0
140
2.5
141
0.09
142
0
143
25.4
144
1
145
0
146
1
147
0.625
148
0
71
0
72
0
73
0
74
1
75
0
76
0
77
0
78
0
79
0
170
0
171
2
172
0
173
0
174
0
175
0
176
0
177
0
178
0
179
0
271
4
272
4
273
2
274
2
275
0
276
0
277
2
278
46
279
0
280
0
281
0
282
0
283
1
284
0
285
0
286
0
288
0
289
3
340
Standard
341

371
-2
372
-2
0
ENDTAB
0
TABLE
2
BLOCK_RECORD
5
1
330
0
100
AcDbSymbolTable
70
2
0
BLOCK_RECORD
5
1F
330
1
100
AcDbSymbolTableRecord
100
AcDbBlockTableRecord
2
*Model_Space
70
0
280
1
281
0
0
BLOCK_RECORD
5
1E
330
1
100
AcDbSymbolTableRecord
100
AcDbBlockTableRecord
2
*Paper_Space
70
0
280
1
281
0
0
BLOCK_RECORD
5
46
330
1
100
AcDbSymbolTableRecord
100
AcDbBlockTableRecord
2
*D5
70
0
280
1
281
0
0
BLOCK_RECORD
5
49
330
1
100
AcDbSymbolTableRecord
100
AcDbBlockTableRecord
2
*D24
70
0
280
1
281
0
0
BLOCK_RECORD
5
4C
330
1
100
AcDbSymbolTableRecord
100
AcDbBlockTableRecord
2
*D37
70
0
280
1
281
0
0
BLOCK_RECORD
5
4F
330
1
100
AcDbSymbolTableRecord
100
AcDbBlockTableRecord
2
*D1
70
0
280
1
281
0
0
BLOCK_RECORD
5
52
330
1
100
AcDbSymbolTableRecord
100
AcDbBlockTableRecord
2
*D12
70
0
280
1
281
0
0
BLOCK_RECORD
5
55
330
1
100
AcDbSymbolTableRecord
100
AcDbBlockTableRecord
2
*D2
70
0
280
1
281
0
0
BLOCK_RECORD
5
58
330
1
100
AcDbSymbolTableRecord
100
AcDbBlockTableRecord
2
*D32
70
0
280
1
281
0
0
BLOCK_RECORD
5
5B
330
1
100
AcDbSymbolTableRecord
100
AcDbBlockTableRecord
2
*D35
70
0
280
1
281
0
0
BLOCK_RECORD
5
5E
330
1
100
AcDbSymbolTableRecord
100
AcDbBlockTableRecord
2
*D4
70
0
280
1
281
0
0
BLOCK_RECORD
5
61
330
1
100
AcDbSymbolTableRecord
100
AcDbBlockTableRecord
2
*D30
70
0
280
1
281
0
0
BLOCK_RECORD
5
64
330
1
100
AcDbSymbolTableRecord
100
AcDbBlockTableRecord
2
*D31
70
0
280
1
281
0
0
BLOCK_RECORD
5
67
330
1
100
AcDbSymbolTableRecord
100
AcDbBlockTableRecord
2
*D8
70
0
280
1
281
0
0
BLOCK_RECORD
5
6A
330
1
100
AcDbSymbolTableRecord
100
AcDbBlockTableRecord
2
*D6
70
0
280
1
281
0
0
BLOCK_RECORD
5
6D
330
1
100
AcDbSymbolTableRecord
100
AcDbBlockTableRecord
2
*D15
70
0
280
1
281
0
0
BLOCK_RECORD
5
70
330
1
100
AcDbSymbolTableRecord
100
AcDbBlockTableRecord
2
*D27
70
0
280
1
281
0
0
BLOCK_RECORD
5
73
330
1
100
AcDbSymbolTableRecord
100
AcDbBlockTableRecord
2
*D21
70
0
280
1
281
0
0
BLOCK_RECORD
5
76
330
1
100
AcDbSymbolTableRecord
100
AcDbBlockTableRecord
2
*D22
70
0
280
1
281
0
0
BLOCK_RECORD
5
79
330
1
100
AcDbSymbolTableRecord
100
AcDbBlockTableRecord
2
*D33
70
0
280
1
281
0
0
BLOCK_RECORD
5
7C
330
1
100
AcDbSymbolTableRecord
100
AcDbBlockTableRecord
2
*D11
70
0
280
1
281
0
0
BLOCK_RECORD
5
7F
330
1
100
AcDbSymbolTableRecord
100
AcDbBlockTableRecord
2
*D3
70
0
280
1
281
0
0
BLOCK_RECORD
5
82
330
1
100
AcDbSymbolTableRecord
100
AcDbBlockTableRecord
2
*D18
70
0
280
1
281
0
0
BLOCK_RECORD
5
85
330
1
100
AcDbSymbolTableRecord
100
AcDbBlockTableRecord
2
*D19
70
0
280
1
281
0
0
BLOCK_RECORD
5
88
330
1
100
AcDbSymbolTableRecord
100
AcDbBlockTableRecord
2
*D25
70
0
280
1
281
0
0
BLOCK_RECORD
5
8B
330
1
100
AcDbSymbolTableRecord
100
AcDbBlockTableRecord
2
*D26
70
0
280
1
281
0
0
BLOCK_RECORD
5
8E
330
1
100
AcDbSymbolTableRecord
100
AcDbBlockTableRecord
2
*D7
70
0
280
1
281
0
0
BLOCK_RECORD
5
91
330
1
100
AcDbSymbolTableRecord
100
AcDbBlockTableRecord
2
*D9
70
0
280
1
281
0
0
BLOCK_RECORD
5
94
330
1
100
AcDbSymbolTableRecord
100
AcDbBlockTableRecord
2
*D10
70
0
280
1
281
0
0
BLOCK_RECORD
5
97
330
1
100
AcDbSymbolTableRecord
100
AcDbBlockTableRecord
2
*D20
70
0
280
1
281
0
0
BLOCK_RECORD
5
9A
330
1
100
AcDbSymbolTableRecord
100
AcDbBlockTableRecord
2
*D23
70
0
280
1
281
0
0
BLOCK_RECORD
5
9D
330
1
100
AcDbSymbolTableRecord
100
AcDbBlockTableRecord
2
*D29
70
0
280
1
281
0
0
BLOCK_RECORD
5
A0
330
1
100
AcDbSymbolTableRecord
100
AcDbBlockTableRecord
2
*D17
70
0
280
1
281
0
0
BLOCK_RECORD
5
A3
330
1
100
AcDbSymbolTableRecord
100
AcDbBlockTableRecord
2
*D14
70
0
280
1
281
0
0
BLOCK_RECORD
5
A6
330
1
100
AcDbSymbolTableRecord
100
AcDbBlockTableRecord
2
*D36
70
0
280
1
281
0
0
BLOCK_RECORD
5
A9
330
1
100
AcDbSymbolTableRecord
100
AcDbBlockTableRecord
2
*D16
70
0
280
1
281
0
0
BLOCK_RECORD
5
AC
330
1
100
AcDbSymbolTableRecord
100
AcDbBlockTableRecord
2
*D34
70
0
280
1
281
0
0
BLOCK_RECORD
5
AF
330
1
100
AcDbSymbolTableRecord
100
AcDbBlockTableRecord
2
*D13
70
0
280
1
281
0
0
BLOCK_RECORD
5
B2
330
1
100
AcDbSymbolTableRecord
100
AcDbBlockTableRecord
2
*D28
70
0
280
1
281
0
0
ENDTAB
0
ENDSEC
0
SECTION
2
BLOCKS
0
BLOCK
5
20
330
1F
100
AcDbEntity
8
0
100
AcDbBlockBegin
2
*Model_Space
70
0
10
0
20
0
30
0
3
*Model_Space
1

0
ENDBLK
5
21
330
1F
100
AcDbEntity
8
0
100
AcDbBlockEnd
0
BLOCK
5
1C
330
1B
100
AcDbEntity
8
0
100
AcDbBlockBegin
2
*Paper_Space
70
0
10
0
20
0
30
0
3
*Paper_Space
1

0
ENDBLK
5
1D
330
1F
100
AcDbEntity
8
0
100
AcDbBlockEnd
0
BLOCK
5
47
330
46
100
AcDbEntity
8
0
100
AcDbBlockBegin
2
*D5
70
1
10
0
20
0
3
*D5
1

0
LINE
5
B5
100
AcDbEntity
8
0
6
CONTINUOUS
62
7
370
0
100
AcDbLine
10
640.625
20
157.1875
11
787.8125
21
157.1875
0
SOLID
5
B6
100
AcDbEntity
8
0
6
CONTINUOUS
62
7
370
0
100
AcDbTrace
10
640.625
20
157.1875
30
0
11
643.125
21
157.603784658
31
0
12
643.125
22
156.771215342
32
0
13
643.125
23
156.771215342
33
0
0
SOLID
5
B7
100
AcDbEntity
8
0
6
CONTINUOUS
62
7
370
0
100
AcDbTrace
10
787.8125
20
157.1875
30
0
11
785.3125
21
156.771215342
31
0
12
785.3125
22
157.603784658
32
0
13
785.3125
23
157.603784658
33
0
0
MTEXT
5
B8
100
AcDbEntity
8
0
6
CONTINUOUS
62
7
370
0
100
AcDbMText
10
714.21875
20
159.0625
30
0
40
2.5
41
12.7777777778
71
5
72
1
1
147.1875
7
standard
210
0
220
0
230
1
50
0
73
2
44
1
0
LINE
5
B9
100
AcDbEntity
8
0
6
CONTINUOUS
62
7
370
0
100
AcDbLine
10
640.625
20
194.375
11
640.625
21
155.9375
0
LINE
5
BA
100
AcDbEntity
8
0
6
CONTINUOUS
62
7
370
0
100
AcDbLine
10
787.8125
20
194.375
11
787.8125
21
155.9375
0
ENDBLK
5
48
330
46
100
AcDbEntity
8
0
100
AcDbBlockEnd
0
BLOCK
5
4A
330
49
100
AcDbEntity
8
0
100
AcDbBlockBegin
2
*D24
70
1
10
0
20
0
3
*D24
1

0
LINE
5
BB
100
AcDbEntity
8
0
6
CONTINUOUS
62
7
370
0
100
AcDbLine
10
2799.6875
20
-2186.5625
11
2929.375
21
-2186.5625
0
SOLID
5
BC
100
AcDbEntity
8
0
6
CONTINUOUS
62
7
370
0
100
AcDbTrace
10
2799.6875
20
-2186.5625
30
0
11
2802.1875
21
-2186.14621534
31
0
12
2802.1875
22
-2186.97878466
32
0
13
2802.1875
23
-2186.97878466
33
0
0
SOLID
5
BD
100
AcDbEntity
8
0
6
CONTINUOUS
62
7
370
0
100
AcDbTrace
10
2929.375
20
-2186.5625
30
0
11
2926.875
21
-2186.97878466
31
0
12
2926.875
22
-2186.14621534
32
0
13
2926.875
23
-2186.14621534
33
0
0
MTEXT
5
BE
100
AcDbEntity
8
0
6
CONTINUOUS
62
7
370
0
100
AcDbMText
10
2864.53125
20
-2184.6875
30
0
40
2.5
41
13.0555555556
71
5
72
1
1
129.6875
7
standard
210
0
220
0
230
1
50
0
73
2
44
1
0
LINE
5
BF
100
AcDbEntity
8
0
6
CONTINUOUS
62
7
370
0
100
AcDbLine
10
2799.6875
20
-2137.1875
11
2799.6875
21
-2187.8125
0
LINE
5
C0
100
AcDbEntity
8
0
6
CONTINUOUS
62
7
370
0
100
AcDbLine
10
2929.375
20
-2136.5625
11
2929.375
21
-2187.8125
0
ENDBLK
5
4B
330
49
100
AcDbEntity
8
0
100
AcDbBlockEnd
0
BLOCK
5
4D
330
4C
100
AcDbEntity
8
0
100
AcDbBlockBegin
2
*D37
70
1
10
0
20
0
3
*D37
1

0
LINE
5
C1
100
AcDbEntity
8
0
6
CONTINUOUS
62
7
370
0
100
AcDbLine
10
3937.75
20
-2194.25
11
4079.75
21
-2194.25
0
SOLID
5
C2
100
AcDbEntity
8
0
6
CONTINUOUS
62
7
370
0
100
AcDbTrace
10
3937.75
20
-2194.25
30
0
11
3940.25
21
-2193.83371534
31
0
12
3940.25
22
-2194.66628466
32
0
13
3940.25
23
-2194.66628466
33
0
0
SOLID
5
C3
100
AcDbEntity
8
0
6
CONTINUOUS
62
7
370
0
100
AcDbTrace
10
4079.75
20
-2194.25
30
0
11
4077.25
21
-2194.66628466
31
0
12
4077.25
22
-2193.83371534
32
0
13
4077.25
23
-2193.83371534
33
0
0
MTEXT
5
C4
100
AcDbEntity
8
0
6
CONTINUOUS
62
7
370
0
100
AcDbMText
10
4008.75
20
-2192.375
30
0
40
2.5
41
4.72222222222
71
5
72
1
1
142
7
standard
210
0
220
0
230
1
50
0
73
2
44
1
0
LINE
5
C5
100
AcDbEntity
8
0
6
CONTINUOUS
62
7
370
0
100
AcDbLine
10
3937.75
20
-2204.375
11
3937.75
21
-2193
0
LINE
5
C6
100
AcDbEntity
8
0
6
CONTINUOUS
62
7
370
0
100
AcDbLine
10
4079.75
20
-2204.375
11
4079.75
21
-2193
0
ENDBLK
5
4E
330
4C
100
AcDbEntity
8
0
100
AcDbBlockEnd
0
BLOCK
5
50
330
4F
100
AcDbEntity
8
0
100
AcDbBlockBegin
2
*D1
70
1
10
0
20
0
3
*D1
1

0
LINE
5
C7
100
AcDbEntity
8
0
6
CONTINUOUS
62
7
370
0
100
AcDbLine
10
844.116210938
20
625
11
946.044921875
21
625
0
SOLID
5
C8
100
AcDbEntity
8
0
6
CONTINUOUS
62
7
370
0
100
AcDbTrace
10
844.116210938
20
625
30
0
11
846.616210938
21
625.416284658
31
0
12
846.616210938
22
624.583715342
32
0
13
846.616210938
23
624.583715342
33
0
0
SOLID
5
C9
100
AcDbEntity
8
0
6
CONTINUOUS
62
7
370
0
100
AcDbTrace
10
946.044921875
20
625
30
0
11
943.544921875
21
624.583715342
31
0
12
943.544921875
22
625.416284658
32
0
13
943.544921875
23
625.416284658
33
0
0
MTEXT
5
CA
100
AcDbEntity
8
0
6
CONTINUOUS
62
7
370
0
100
AcDbMText
10
895.080566406
20
626.875
30
0
40
2.5
41
12.5
71
5
72
1
1
101.9287
7
standard
210
0
220
0
230
1
50
0
73
2
44
1
0
LINE
5
CB
100
AcDbEntity
8
0
6
CONTINUOUS
62
7
370
0
100
AcDbLine
10
844.116210938
20
648.7890625
11
844.116210938
21
623.75
0
LINE
5
CC
100
AcDbEntity
8
0
6
CONTINUOUS
62
7
370
0
100
AcDbLine
10
946.044921875
20
649.399414062
11
946.044921875
21
623.75
0
ENDBLK
5
51
330
4F
100
AcDbEntity
8
0
100
AcDbBlockEnd
0
BLOCK
5
53
330
52
100
AcDbEntity
8
0
100
AcDbBlockBegin
2
*D12
70
1
10
0
20
0
3
*D12
1

0
LINE
5
CD
100
AcDbEntity
8
0
6
CONTINUOUS
62
7
370
0
100
AcDbLine
10
833.4
20
726.4
11
833.4
21
643.4
0
SOLID
5
CE
100
AcDbEntity
8
0
6
CONTINUOUS
62
7
370
0
100
AcDbTrace
10
833.4
20
726.4
30
0
11
833.816284658
21
723.9
31
0
12
832.983715342
22
723.9
32
0
13
832.983715342
23
723.9
33
0
0
SOLID
5
CF
100
AcDbEntity
8
0
6
CONTINUOUS
62
7
370
0
100
AcDbTrace
10
833.4
20
643.4
30
0
11
832.983715342
21
645.9
31
0
12
833.816284658
22
645.9
32
0
13
833.816284658
23
645.9
33
0
0
MTEXT
5
D0
100
AcDbEntity
8
0
6
CONTINUOUS
62
7
370
0
100
AcDbMText
10
831.525
20
684.9
30
0
40
2.5
41
3.05555555556
71
5
72
1
1
83
7
standard
210
0
220
0
230
1
50
90
73
2
44
1
0
LINE
5
D1
100
AcDbEntity
8
0
6
CONTINUOUS
62
7
370
0
100
AcDbLine
10
889.175
20
726.4
11
832.15
21
726.4
0
LINE
5
D2
100
AcDbEntity
8
0
6
CONTINUOUS
62
7
370
0
100
AcDbLine
10
889.375
20
643.4
11
832.15
21
643.4
0
ENDBLK
5
54
330
52
100
AcDbEntity
8
0
100
AcDbBlockEnd
0
BLOCK
5
56
330
55
100
AcDbEntity
8
0
100
AcDbBlockBegin
2
*D2
70
1
10
0
20
0
3
*D2
1

0
LINE
5
D3
100
AcDbEntity
8
0
6
CONTINUOUS
62
7
370
0
100
AcDbLine
10
113
20
237
11
223
21
237
0
SOLID
5
D4
100
AcDbEntity
8
0
6
CONTINUOUS
62
7
370
0
100
AcDbTrace
10
113
20
237
30
0
11
115.5
21
237.416284658
31
0
12
115.5
22
236.583715342
32
0
13
115.5
23
236.583715342
33
0
0
SOLID
5
D5
100
AcDbEntity
8
0
6
CONTINUOUS
62
7
370
0
100
AcDbTrace
10
223
20
237
30
0
11
220.5
21
236.583715342
31
0
12
220.5
22
237.416284658
32
0
13
220.5
23
237.416284658
33
0
0
MTEXT
5
D6
100
AcDbEntity
8
0
6
CONTINUOUS
62
7
370
0
100
AcDbMText
10
168
20
238.875
30
0
40
2.5
41
3.88888888889
71
5
72
1
1
110
7
standard
210
0
220
0
230
1
50
0
73
2
44
1
0
LINE
5
D7
100
AcDbEntity
8
0
6
CONTINUOUS
62
7
370
0
100
AcDbLine
10
113
20
270.875
11
113
21
235.75
0
LINE
5
D8
100
AcDbEntity
8
0
6
CONTINUOUS
62
7
370
0
100
AcDbLine
10
223
20
271.125
11
223
21
235.75
0
ENDBLK
5
57
330
55
100
AcDbEntity
8
0
100
AcDbBlockEnd
0
BLOCK
5
59
330
58
100
AcDbEntity
8
0
100
AcDbBlockBegin
2
*D32
70
1
10
0
20
0
3
*D32
1

0
LINE
5
D9
100
AcDbEntity
8
0
6
CONTINUOUS
62
7
370
0
100
AcDbLine
10
5117.1875
20
-2084.765625
11
5117.1875
21
-2241.40625
0
SOLID
5
DA
100
AcDbEntity
8
0
6
CONTINUOUS
62
7
370
0
100
AcDbTrace
10
5117.1875
20
-2084.765625
30
0
11
5117.60378466
21
-2087.265625
31
0
12
5116.77121534
22
-2087.265625
32
0
13
5116.77121534
23
-2087.265625
33
0
0
SOLID
5
DB
100
AcDbEntity
8
0
6
CONTINUOUS
62
7
370
0
100
AcDbTrace
10
5117.1875
20
-2241.40625
30
0
11
5116.77121534
21
-2238.90625
31
0
12
5117.60378466
22
-2238.90625
32
0
13
5117.60378466
23
-2238.90625
33
0
0
MTEXT
5
DC
100
AcDbEntity
8
0
6
CONTINUOUS
62
7
370
0
100
AcDbMText
10
5115.3125
20
-2163.0859375
30
0
40
2.5
41
13.3333333333
71
5
72
1
1
156.6406
7
standard
210
0
220
0
230
1
50
90
73
2
44
1
0
LINE
5
DD
100
AcDbEntity
8
0
6
CONTINUOUS
62
7
370
0
100
AcDbLine
10
5201.328125
20
-2084.765625
11
5115.9375
21
-2084.765625
0
LINE
5
DE
100
AcDbEntity
8
0
6
CONTINUOUS
62
7
370
0
100
AcDbLine
10
5200.9375
20
-2241.40625
11
5115.9375
21
-2241.40625
0
ENDBLK
5
5A
330
58
100
AcDbEntity
8
0
100
AcDbBlockEnd
0
BLOCK
5
5C
330
5B
100
AcDbEntity
8
0
100
AcDbBlockBegin
2
*D35
70
1
10
0
20
0
3
*D35
1

0
LINE
5
DF
100
AcDbEntity
8
0
6
CONTINUOUS
62
7
370
0
100
AcDbLine
10
1602.432
20
-2088.192
11
1602.432
21
-2180.48
0
SOLID
5
E0
100
AcDbEntity
8
0
6
CONTINUOUS
62
7
370
0
100
AcDbTrace
10
1602.432
20
-2088.192
30
0
11
1602.84828466
21
-2090.692
31
0
12
1602.01571534
22
-2090.692
32
0
13
1602.01571534
23
-2090.692
33
0
0
SOLID
5
E1
100
AcDbEntity
8
0
6
CONTINUOUS
62
7
370
0
100
AcDbTrace
10
1602.432
20
-2180.48
30
0
11
1602.01571534
21
-2177.98
31
0
12
1602.84828466
22
-2177.98
32
0
13
1602.84828466
23
-2177.98
33
0
0
MTEXT
5
E2
100
AcDbEntity
8
0
6
CONTINUOUS
62
7
370
0
100
AcDbMText
10
1600.557
20
-2134.336
30
0
40
2.5
41
9.72222222222
71
5
72
1
1
92.288
7
standard
210
0
220
0
230
1
50
90
73
2
44
1
0
LINE
5
E3
100
AcDbEntity
8
0
6
CONTINUOUS
62
7
370
0
100
AcDbLine
10
1650.959
20
-2088.192
11
1601.182
21
-2088.192
0
LINE
5
E4
100
AcDbEntity
8
0
6
CONTINUOUS
62
7
370
0
100
AcDbLine
10
1650.575
20
-2180.48
11
1601.182
21
-2180.48
0
ENDBLK
5
5D
330
5B
100
AcDbEntity
8
0
100
AcDbBlockEnd
0
BLOCK
5
5F
330
5E
100
AcDbEntity
8
0
100
AcDbBlockBegin
2
*D4
70
1
10
0
20
0
3
*D4
1

0
LINE
5
E5
100
AcDbEntity
8
0
6
CONTINUOUS
62
7
370
0
100
AcDbLine
10
463.125
20
187.8125
11
601.25
21
187.8125
0
SOLID
5
E6
100
AcDbEntity
8
0
6
CONTINUOUS
62
7
370
0
100
AcDbTrace
10
463.125
20
187.8125
30
0
11
465.625
21
188.228784658
31
0
12
465.625
22
187.396215342
32
0
13
465.625
23
187.396215342
33
0
0
SOLID
5
E7
100
AcDbEntity
8
0
6
CONTINUOUS
62
7
370
0
100
AcDbTrace
10
601.25
20
187.8125
30
0
11
598.75
21
187.396215342
31
0
12
598.75
22
188.228784658
32
0
13
598.75
23
188.228784658
33
0
0
MTEXT
5
E8
100
AcDbEntity
8
0
6
CONTINUOUS
62
7
370
0
100
AcDbMText
10
532.1875
20
189.6875
30
0
40
2.5
41
10.5555555556
71
5
72
1
1
138.125
7
standard
210
0
220
0
230
1
50
0
73
2
44
1
0
LINE
5
E9
100
AcDbEntity
8
0
6
CONTINUOUS
62
7
370
0
100
AcDbLine
10
463.125
20
219.0625
11
463.125
21
186.5625
0
LINE
5
EA
100
AcDbEntity
8
0
6
CONTINUOUS
62
7
370
0
100
AcDbLine
10
601.25
20
219.375
11
601.25
21
186.5625
0
ENDBLK
5
60
330
5E
100
AcDbEntity
8
0
100
AcDbBlockEnd
0
BLOCK
5
62
330
61
100
AcDbEntity
8
0
100
AcDbBlockBegin
2
*D30
70
1
10
0
20
0
3
*D30
1

0
LINE
5
EB
100
AcDbEntity
8
0
6
CONTINUOUS
62
7
370
0
100
AcDbLine
10
3933.75
20
-2235
11
4085.25
21
-2235
0
SOLID
5
EC
100
AcDbEntity
8
0
6
CONTINUOUS
62
7
370
0
100
AcDbTrace
10
3933.75
20
-2235
30
0
11
3936.25
21
-2234.58371534
31
0
12
3936.25
22
-2235.41628466
32
0
13
3936.25
23
-2235.41628466
33
0
0
SOLID
5
ED
100
AcDbEntity
8
0
6
CONTINUOUS
62
7
370
0
100
AcDbTrace
10
4085.25
20
-2235
30
0
11
4082.75
21
-2235.41628466
31
0
12
4082.75
22
-2234.58371534
32
0
13
4082.75
23
-2234.58371534
33
0
0
MTEXT
5
EE
100
AcDbEntity
8
0
6
CONTINUOUS
62
7
370
0
100
AcDbMText
10
4009.5
20
-2233.125
30
0
40
2.5
41
6.66666666667
71
5
72
1
1
151.5
7
standard
210
0
220
0
230
1
50
0
73
2
44
1
0
LINE
5
EF
100
AcDbEntity
8
0
6
CONTINUOUS
62
7
370
0
100
AcDbLine
10
3933.75
20
-2145.125
11
3933.75
21
-2236.25
0
LINE
5
F0
100
AcDbEntity
8
0
6
CONTINUOUS
62
7
370
0
100
AcDbLine
10
4085.25
20
-2145.625
11
4085.25
21
-2236.25
0
ENDBLK
5
63
330
61
100
AcDbEntity
8
0
100
AcDbBlockEnd
0
BLOCK
5
65
330
64
100
AcDbEntity
8
0
100
AcDbBlockBegin
2
*D31
70
1
10
0
20
0
3
*D31
1

0
LINE
5
F1
100
AcDbEntity
8
0
6
CONTINUOUS
62
7
370
0
100
AcDbLine
10
5173.8
20
-858.2
11
5173.8
21
-925
0
SOLID
5
F2
100
AcDbEntity
8
0
6
CONTINUOUS
62
7
370
0
100
AcDbTrace
10
5173.8
20
-858.2
30
0
11
5174.21628466
21
-860.7
31
0
12
5173.38371534
22
-860.7
32
0
13
5173.38371534
23
-860.7
33
0
0
SOLID
5
F3
100
AcDbEntity
8
0
6
CONTINUOUS
62
7
370
0
100
AcDbTrace
10
5173.8
20
-925
30
0
11
5173.38371534
21
-922.5
31
0
12
5174.21628466
22
-922.5
32
0
13
5174.21628466
23
-922.5
33
0
0
MTEXT
5
F4
100
AcDbEntity
8
0
6
CONTINUOUS
62
7
370
0
100
AcDbMText
10
5171.925
20
-891.6
30
0
40
2.5
41
5.83333333333
71
5
72
1
1
66.8
7
standard
210
0
220
0
230
1
50
90
73
2
44
1
0
LINE
5
F5
100
AcDbEntity
8
0
6
CONTINUOUS
62
7
370
0
100
AcDbLine
10
5221.975
20
-858.2
11
5172.55
21
-858.2
0
LINE
5
F6
100
AcDbEntity
8
0
6
CONTINUOUS
62
7
370
0
100
AcDbLine
10
5222.175
20
-925
11
5172.55
21
-925
0
ENDBLK
5
66
330
64
100
AcDbEntity
8
0
100
AcDbBlockEnd
0
BLOCK
5
68
330
67
100
AcDbEntity
8
0
100
AcDbBlockBegin
2
*D8
70
1
10
0
20
0
3
*D8
1

0
LINE
5
F7
100
AcDbEntity
8
0
6
CONTINUOUS
62
7
370
0
100
AcDbLine
10
688.4375
20
334.375
11
730.3125
21
334.375
0
SOLID
5
F8
100
AcDbEntity
8
0
6
CONTINUOUS
62
7
370
0
100
AcDbTrace
10
688.4375
20
334.375
30
0
11
690.9375
21
334.791284658
31
0
12
690.9375
22
333.958715342
32
0
13
690.9375
23
333.958715342
33
0
0
SOLID
5
F9
100
AcDbEntity
8
0
6
CONTINUOUS
62
7
370
0
100
AcDbTrace
10
730.3125
20
334.375
30
0
11
727.8125
21
333.958715342
31
0
12
727.8125
22
334.791284658
32
0
13
727.8125
23
334.791284658
33
0
0
MTEXT
5
FA
100
AcDbEntity
8
0
6
CONTINUOUS
62
7
370
0
100
AcDbMText
10
709.375
20
336.25
30
0
40
2.5
41
9.44444444444
71
5
72
1
1
41.875
7
standard
210
0
220
0
230
1
50
0
73
2
44
1
0
LINE
5
FB
100
AcDbEntity
8
0
6
CONTINUOUS
62
7
370
0
100
AcDbLine
10
688.4375
20
328.75
11
688.4375
21
335.625
0
LINE
5
FC
100
AcDbEntity
8
0
6
CONTINUOUS
62
7
370
0
100
AcDbLine
10
730.3125
20
328.4375
11
730.3125
21
335.625
0
ENDBLK
5
69
330
67
100
AcDbEntity
8
0
100
AcDbBlockEnd
0
BLOCK
5
6B
330
6A
100
AcDbEntity
8
0
100
AcDbBlockBegin
2
*D6
70
1
10
0
20
0
3
*D6
1

0
LINE
5
FD
100
AcDbEntity
8
0
6
CONTINUOUS
62
7
370
0
100
AcDbLine
10
818.75
20
133.4375
11
981.5625
21
133.4375
0
SOLID
5
FE
100
AcDbEntity
8
0
6
CONTINUOUS
62
7
370
0
100
AcDbTrace
10
818.75
20
133.4375
30
0
11
821.25
21
133.853784658
31
0
12
821.25
22
133.021215342
32
0
13
821.25
23
133.021215342
33
0
0
SOLID
5
FF
100
AcDbEntity
8
0
6
CONTINUOUS
62
7
370
0
100
AcDbTrace
10
981.5625
20
133.4375
30
0
11
979.0625
21
133.021215342
31
0
12
979.0625
22
133.853784658
32
0
13
979.0625
23
133.853784658
33
0
0
MTEXT
5
100
100
AcDbEntity
8
0
6
CONTINUOUS
62
7
370
0
100
AcDbMText
10
900.15625
20
135.3125
30
0
40
2.5
41
12.5
71
5
72
1
1
162.8125
7
standard
210
0
220
0
230
1
50
0
73
2
44
1
0
LINE
5
101
100
AcDbEntity
8
0
6
CONTINUOUS
62
7
370
0
100
AcDbLine
10
818.75
20
168.4375
11
818.75
21
132.1875
0
LINE
5
102
100
AcDbEntity
8
0
6
CONTINUOUS
62
7
370
0
100
AcDbLine
10
981.5625
20
168.4375
11
981.5625
21
132.1875
0
ENDBLK
5
6C
330
6A
100
AcDbEntity
8
0
100
AcDbBlockEnd
0
BLOCK
5
6E
330
6D
100
AcDbEntity
8
0
100
AcDbBlockBegin
2
*D15
70
1
10
0
20
0
3
*D15
1

0
LINE
5
103
100
AcDbEntity
8
0
6
CONTINUOUS
62
7
370
0
100
AcDbLine
10
589.375
20
326.5625
11
589.375
21
203.125
0
SOLID
5
104
100
AcDbEntity
8
0
6
CONTINUOUS
62
7
370
0
100
AcDbTrace
10
589.375
20
326.5625
30
0
11
589.791284658
21
324.0625
31
0
12
588.958715342
22
324.0625
32
0
13
588.958715342
23
324.0625
33
0
0
SOLID
5
105
100
AcDbEntity
8
0
6
CONTINUOUS
62
7
370
0
100
AcDbTrace
10
589.375
20
203.125
30
0
11
588.958715342
21
205.625
31
0
12
589.791284658
22
205.625
32
0
13
589.791284658
23
205.625
33
0
0
MTEXT
5
106
100
AcDbEntity
8
0
6
CONTINUOUS
62
7
370
0
100
AcDbMText
10
587.5
20
264.84375
30
0
40
2.5
41
13.3333333333
71
5
72
1
1
123.4375
7
standard
210
0
220
0
230
1
50
90
73
2
44
1
0
LINE
5
107
100
AcDbEntity
8
0
6
CONTINUOUS
62
7
370
0
100
AcDbLine
10
548.75
20
326.5625
11
590.625
21
326.5625
0
LINE
5
108
100
AcDbEntity
8
0
6
CONTINUOUS
62
7
370
0
100
AcDbLine
10
548.75
20
203.125
11
590.625
21
203.125
0
ENDBLK
5
6F
330
6D
100
AcDbEntity
8
0
100
AcDbBlockEnd
0
BLOCK
5
71
330
70
100
AcDbEntity
8
0
100
AcDbBlockBegin
2
*D27
70
1
10
0
20
0
3
*D27
1

0
LINE
5
109
100
AcDbEntity
8
0
6
CONTINUOUS
62
7
370
0
100
AcDbLine
10
1653
20
-2087
11
1688
21
-2087
0
SOLID
5
10A
100
AcDbEntity
8
0
6
CONTINUOUS
62
7
370
0
100
AcDbTrace
10
1653
20
-2087
30
0
11
1655.5
21
-2086.58371534
31
0
12
1655.5
22
-2087.41628466
32
0
13
1655.5
23
-2087.41628466
33
0
0
SOLID
5
10B
100
AcDbEntity
8
0
6
CONTINUOUS
62
7
370
0
100
AcDbTrace
10
1688
20
-2087
30
0
11
1685.5
21
-2087.41628466
31
0
12
1685.5
22
-2086.58371534
32
0
13
1685.5
23
-2086.58371534
33
0
0
MTEXT
5
10C
100
AcDbEntity
8
0
6
CONTINUOUS
62
7
370
0
100
AcDbMText
10
1670.5
20
-2085.125
30
0
40
2.5
41
3.05555555556
71
5
72
1
1
35
7
standard
210
0
220
0
230
1
50
0
73
2
44
1
0
LINE
5
10D
100
AcDbEntity
8
0
6
CONTINUOUS
62
7
370
0
100
AcDbLine
10
1653
20
-2088.775
11
1653
21
-2085.75
0
LINE
5
10E
100
AcDbEntity
8
0
6
CONTINUOUS
62
7
370
0
100
AcDbLine
10
1688
20
-2088.375
11
1688
21
-2085.75
0
ENDBLK
5
72
330
70
100
AcDbEntity
8
0
100
AcDbBlockEnd
0
BLOCK
5
74
330
73
100
AcDbEntity
8
0
100
AcDbBlockBegin
2
*D21
70
1
10
0
20
0
3
*D21
1

0
LINE
5
10F
100
AcDbEntity
8
0
6
CONTINUOUS
62
7
370
0
100
AcDbLine
10
5138
20
-2269.25
11
5311
21
-2269.25
0
SOLID
5
110
100
AcDbEntity
8
0
6
CONTINUOUS
62
7
370
0
100
AcDbTrace
10
5138
20
-2269.25
30
0
11
5140.5
21
-2268.83371534
31
0
12
5140.5
22
-2269.66628466
32
0
13
5140.5
23
-2269.66628466
33
0
0
SOLID
5
111
100
AcDbEntity
8
0
6
CONTINUOUS
62
7
370
0
100
AcDbTrace
10
5311
20
-2269.25
30
0
11
5308.5
21
-2269.66628466
31
0
12
5308.5
22
-2268.83371534
32
0
13
5308.5
23
-2268.83371534
33
0
0
MTEXT
5
112
100
AcDbEntity
8
0
6
CONTINUOUS
62
7
370
0
100
AcDbMText
10
5224.5
20
-2267.375
30
0
40
2.5
41
4.44444444444
71
5
72
1
1
173
7
standard
210
0
220
0
230
1
50
0
73
2
44
1
0
LINE
5
113
100
AcDbEntity
8
0
6
CONTINUOUS
62
7
370
0
100
AcDbLine
10
5138
20
-2201.125
11
5138
21
-2270.5
0
LINE
5
114
100
AcDbEntity
8
0
6
CONTINUOUS
62
7
370
0
100
AcDbLine
10
5311
20
-2201.125
11
5311
21
-2270.5
0
ENDBLK
5
75
330
73
100
AcDbEntity
8
0
100
AcDbBlockEnd
0
BLOCK
5
77
330
76
100
AcDbEntity
8
0
100
AcDbBlockBegin
2
*D22
70
1
10
0
20
0
3
*D22
1

0
LINE
5
115
100
AcDbEntity
8
0
6
CONTINUOUS
62
7
370
0
100
AcDbLine
10
5147.5
20
-2200
11
5297.75
21
-2200
0
SOLID
5
116
100
AcDbEntity
8
0
6
CONTINUOUS
62
7
370
0
100
AcDbTrace
10
5147.5
20
-2200
30
0
11
5150
21
-2199.58371534
31
0
12
5150
22
-2200.41628466
32
0
13
5150
23
-2200.41628466
33
0
0
SOLID
5
117
100
AcDbEntity
8
0
6
CONTINUOUS
62
7
370
0
100
AcDbTrace
10
5297.75
20
-2200
30
0
11
5295.25
21
-2200.41628466
31
0
12
5295.25
22
-2199.58371534
32
0
13
5295.25
23
-2199.58371534
33
0
0
MTEXT
5
118
100
AcDbEntity
8
0
6
CONTINUOUS
62
7
370
0
100
AcDbMText
10
5222.625
20
-2198.125
30
0
40
2.5
41
9.16666666667
71
5
72
1
1
150.25
7
standard
210
0
220
0
230
1
50
0
73
2
44
1
0
LINE
5
119
100
AcDbEntity
8
0
6
CONTINUOUS
62
7
370
0
100
AcDbLine
10
5147.5
20
-2164.125
11
5147.5
21
-2201.25
0
LINE
5
11A
100
AcDbEntity
8
0
6
CONTINUOUS
62
7
370
0
100
AcDbLine
10
5297.75
20
-2163.625
11
5297.75
21
-2201.25
0
ENDBLK
5
78
330
76
100
AcDbEntity
8
0
100
AcDbBlockEnd
0
BLOCK
5
7A
330
79
100
AcDbEntity
8
0
100
AcDbBlockBegin
2
*D33
70
1
10
0
20
0
3
*D33
1

0
LINE
5
11B
100
AcDbEntity
8
0
6
CONTINUOUS
62
7
370
0
100
AcDbLine
10
3911.875
20
-2095.9375
11
3911.875
21
-2229.375
0
SOLID
5
11C
100
AcDbEntity
8
0
6
CONTINUOUS
62
7
370
0
100
AcDbTrace
10
3911.875
20
-2095.9375
30
0
11
3912.29128466
21
-2098.4375
31
0
12
3911.45871534
22
-2098.4375
32
0
13
3911.45871534
23
-2098.4375
33
0
0
SOLID
5
11D
100
AcDbEntity
8
0
6
CONTINUOUS
62
7
370
0
100
AcDbTrace
10
3911.875
20
-2229.375
30
0
11
3911.45871534
21
-2226.875
31
0
12
3912.29128466
22
-2226.875
32
0
13
3912.29128466
23
-2226.875
33
0
0
MTEXT
5
11E
100
AcDbEntity
8
0
6
CONTINUOUS
62
7
370
0
100
AcDbMText
10
3910
20
-2162.65625
30
0
40
2.5
41
13.3333333333
71
5
72
1
1
133.4375
7
standard
210
0
220
0
230
1
50
90
73
2
44
1
0
LINE
5
11F
100
AcDbEntity
8
0
6
CONTINUOUS
62
7
370
0
100
AcDbLine
10
3988.4375
20
-2095.9375
11
3910.625
21
-2095.9375
0
LINE
5
120
100
AcDbEntity
8
0
6
CONTINUOUS
62
7
370
0
100
AcDbLine
10
3987.8125
20
-2229.375
11
3910.625
21
-2229.375
0
ENDBLK
5
7B
330
79
100
AcDbEntity
8
0
100
AcDbBlockEnd
0
BLOCK
5
7D
330
7C
100
AcDbEntity
8
0
100
AcDbBlockBegin
2
*D11
70
1
10
0
20
0
3
*D11
1

0
LINE
5
121
100
AcDbEntity
8
0
6
CONTINUOUS
62
7
370
0
100
AcDbLine
10
871
20
665.8
11
911.8
21
665.8
0
SOLID
5
122
100
AcDbEntity
8
0
6
CONTINUOUS
62
7
370
0
100
AcDbTrace
10
871
20
665.8
30
0
11
873.5
21
666.216284658
31
0
12
873.5
22
665.383715342
32
0
13
873.5
23
665.383715342
33
0
0
SOLID
5
123
100
AcDbEntity
8
0
6
CONTINUOUS
62
7
370
0
100
AcDbTrace
10
911.8
20
665.8
30
0
11
909.3
21
665.383715342
31
0
12
909.3
22
666.216284658
32
0
13
909.3
23
666.216284658
33
0
0
MTEXT
5
124
100
AcDbEntity
8
0
6
CONTINUOUS
62
7
370
0
100
AcDbMText
10
891.4
20
667.675
30
0
40
2.5
41
6.11111111111
71
5
72
1
1
40.8
7
standard
210
0
220
0
230
1
50
0
73
2
44
1
0
LINE
5
125
100
AcDbEntity
8
0
6
CONTINUOUS
62
7
370
0
100
AcDbLine
10
871
20
692.175
11
871
21
664.55
0
LINE
5
126
100
AcDbEntity
8
0
6
CONTINUOUS
62
7
370
0
100
AcDbLine
10
911.8
20
692.375
11
911.8
21
664.55
0
ENDBLK
5
7E
330
7C
100
AcDbEntity
8
0
100
AcDbBlockEnd
0
BLOCK
5
80
330
7F
100
AcDbEntity
8
0
100
AcDbBlockBegin
2
*D3
70
1
10
0
20
0
3
*D3
1

0
LINE
5
127
100
AcDbEntity
8
0
6
CONTINUOUS
62
7
370
0
100
AcDbLine
10
287.5
20
200.3125
11
420
21
200.3125
0
SOLID
5
128
100
AcDbEntity
8
0
6
CONTINUOUS
62
7
370
0
100
AcDbTrace
10
287.5
20
200.3125
30
0
11
290
21
200.728784658
31
0
12
290
22
199.896215342
32
0
13
290
23
199.896215342
33
0
0
SOLID
5
129
100
AcDbEntity
8
0
6
CONTINUOUS
62
7
370
0
100
AcDbTrace
10
420
20
200.3125
30
0
11
417.5
21
199.896215342
31
0
12
417.5
22
200.728784658
32
0
13
417.5
23
200.728784658
33
0
0
MTEXT
5
12A
100
AcDbEntity
8
0
6
CONTINUOUS
62
7
370
0
100
AcDbMText
10
353.75
20
202.1875
30
0
40
2.5
41
7.22222222222
71
5
72
1
1
132.5
7
standard
210
0
220
0
230
1
50
0
73
2
44
1
0
LINE
5
12B
100
AcDbEntity
8
0
6
CONTINUOUS
62
7
370
0
100
AcDbLine
10
287.5
20
230.3125
11
287.5
21
199.0625
0
LINE
5
12C
100
AcDbEntity
8
0
6
CONTINUOUS
62
7
370
0
100
AcDbLine
10
420
20
231.25
11
420
21
199.0625
0
ENDBLK
5
81
330
7F
100
AcDbEntity
8
0
100
AcDbBlockEnd
0
BLOCK
5
83
330
82
100
AcDbEntity
8
0
100
AcDbBlockBegin
2
*D18
70
1
10
0
20
0
3
*D18
1

0
LINE
5
12D
100
AcDbEntity
8
0
6
CONTINUOUS
62
7
370
0
100
AcDbLine
10
5204.48
20
-888.96
11
5240.832
21
-888.96
0
SOLID
5
12E
100
AcDbEntity
8
0
6
CONTINUOUS
62
7
370
0
100
AcDbTrace
10
5204.48
20
-888.96
30
0
11
5206.98
21
-888.543715342
31
0
12
5206.98
22
-889.376284658
32
0
13
5206.98
23
-889.376284658
33
0
0
SOLID
5
12F
100
AcDbEntity
8
0
6
CONTINUOUS
62
7
370
0
100
AcDbTrace
10
5240.832
20
-888.96
30
0
11
5238.332
21
-889.376284658
31
0
12
5238.332
22
-888.543715342
32
0
13
5238.332
23
-888.543715342
33
0
0
MTEXT
5
130
100
AcDbEntity
8
0
6
CONTINUOUS
62
7
370
0
100
AcDbMText
10
5222.656
20
-887.085
30
0
40
2.5
41
9.72222222222
71
5
72
1
1
36.352
7
standard
210
0
220
0
230
1
50
0
73
2
44
1
0
LINE
5
131
100
AcDbEntity
8
0
6
CONTINUOUS
62
7
370
0
100
AcDbLine
10
5204.48
20
-890.767
11
5204.48
21
-887.71
0
LINE
5
132
100
AcDbEntity
8
0
6
CONTINUOUS
62
7
370
0
100
AcDbLine
10
5240.832
20
-890.767
11
5240.832
21
-887.71
0
ENDBLK
5
84
330
82
100
AcDbEntity
8
0
100
AcDbBlockEnd
0
BLOCK
5
86
330
85
100
AcDbEntity
8
0
100
AcDbBlockBegin
2
*D19
70
1
10
0
20
0
3
*D19
1

0
LINE
5
133
100
AcDbEntity
8
0
6
CONTINUOUS
62
7
370
0
100
AcDbLine
10
5184.64
20
-934.784
11
5260.8
21
-934.784
0
SOLID
5
134
100
AcDbEntity
8
0
6
CONTINUOUS
62
7
370
0
100
AcDbTrace
10
5184.64
20
-934.784
30
0
11
5187.14
21
-934.367715342
31
0
12
5187.14
22
-935.200284658
32
0
13
5187.14
23
-935.200284658
33
0
0
SOLID
5
135
100
AcDbEntity
8
0
6
CONTINUOUS
62
7
370
0
100
AcDbTrace
10
5260.8
20
-934.784
30
0
11
5258.3
21
-935.200284658
31
0
12
5258.3
22
-934.367715342
32
0
13
5258.3
23
-934.367715342
33
0
0
MTEXT
5
136
100
AcDbEntity
8
0
6
CONTINUOUS
62
7
370
0
100
AcDbMText
10
5222.72
20
-932.909
30
0
40
2.5
41
7.22222222222
71
5
72
1
1
76.16
7
standard
210
0
220
0
230
1
50
0
73
2
44
1
0
LINE
5
137
100
AcDbEntity
8
0
6
CONTINUOUS
62
7
370
0
100
AcDbLine
10
5184.64
20
-924.657
11
5184.64
21
-936.034
0
LINE
5
138
100
AcDbEntity
8
0
6
CONTINUOUS
62
7
370
0
100
AcDbLine
10
5260.8
20
-924.273
11
5260.8
21
-936.034
0
ENDBLK
5
87
330
85
100
AcDbEntity
8
0
100
AcDbBlockEnd
0
BLOCK
5
89
330
88
100
AcDbEntity
8
0
100
AcDbBlockBegin
2
*D25
70
1
10
0
20
0
3
*D25
1

0
LINE
5
139
100
AcDbEntity
8
0
6
CONTINUOUS
62
7
370
0
100
AcDbLine
10
500.5
20
-2097.5
11
537
21
-2097.5
0
SOLID
5
13A
100
AcDbEntity
8
0
6
CONTINUOUS
62
7
370
0
100
AcDbTrace
10
500.5
20
-2097.5
30
0
11
503
21
-2097.08371534
31
0
12
503
22
-2097.91628466
32
0
13
503
23
-2097.91628466
33
0
0
SOLID
5
13B
100
AcDbEntity
8
0
6
CONTINUOUS
62
7
370
0
100
AcDbTrace
10
537
20
-2097.5
30
0
11
534.5
21
-2097.91628466
31
0
12
534.5
22
-2097.08371534
32
0
13
534.5
23
-2097.08371534
33
0
0
MTEXT
5
13C
100
AcDbEntity
8
0
6
CONTINUOUS
62
7
370
0
100
AcDbMText
10
518.75
20
-2095.625
30
0
40
2.5
41
5.83333333333
71
5
72
1
1
36.5
7
standard
210
0
220
0
230
1
50
0
73
2
44
1
0
LINE
5
13D
100
AcDbEntity
8
0
6
CONTINUOUS
62
7
370
0
100
AcDbLine
10
500.5
20
-2099.625
11
500.5
21
-2096.25
0
LINE
5
13E
100
AcDbEntity
8
0
6
CONTINUOUS
62
7
370
0
100
AcDbLine
10
537
20
-2099.125
11
537
21
-2096.25
0
ENDBLK
5
8A
330
88
100
AcDbEntity
8
0
100
AcDbBlockEnd
0
BLOCK
5
8C
330
8B
100
AcDbEntity
8
0
100
AcDbBlockBegin
2
*D26
70
1
10
0
20
0
3
*D26
1

0
LINE
5
13F
100
AcDbEntity
8
0
6
CONTINUOUS
62
7
370
0
100
AcDbLine
10
476
20
-2166.75
11
562.75
21
-2166.75
0
SOLID
5
140
100
AcDbEntity
8
0
6
CONTINUOUS
62
7
370
0
100
AcDbTrace
10
476
20
-2166.75
30
0
11
478.5
21
-2166.33371534
31
0
12
478.5
22
-2167.16628466
32
0
13
478.5
23
-2167.16628466
33
0
0
SOLID
5
141
100
AcDbEntity
8
0
6
CONTINUOUS
62
7
370
0
100
AcDbTrace
10
562.75
20
-2166.75
30
0
11
560.25
21
-2167.16628466
31
0
12
560.25
22
-2166.33371534
32
0
13
560.25
23
-2166.33371534
33
0
0
MTEXT
5
142
100
AcDbEntity
8
0
6
CONTINUOUS
62
7
370
0
100
AcDbMText
10
519.375
20
-2164.875
30
0
40
2.5
41
7.77777777778
71
5
72
1
1
86.75
7
standard
210
0
220
0
230
1
50
0
73
2
44
1
0
LINE
5
143
100
AcDbEntity
8
0
6
CONTINUOUS
62
7
370
0
100
AcDbLine
10
476
20
-2082.125
11
476
21
-2168
0
LINE
5
144
100
AcDbEntity
8
0
6
CONTINUOUS
62
7
370
0
100
AcDbLine
10
562.75
20
-2081.875
11
562.75
21
-2168
0
ENDBLK
5
8D
330
8B
100
AcDbEntity
8
0
100
AcDbBlockEnd
0
BLOCK
5
8F
330
8E
100
AcDbEntity
8
0
100
AcDbBlockBegin
2
*D7
70
1
10
0
20
0
3
*D7
1

0
LINE
5
145
100
AcDbEntity
8
0
6
CONTINUOUS
62
7
370
0
100
AcDbLine
10
874.375
20
308.75
11
917.8125
21
308.75
0
SOLID
5
146
100
AcDbEntity
8
0
6
CONTINUOUS
62
7
370
0
100
AcDbTrace
10
874.375
20
308.75
30
0
11
876.875
21
309.166284658
31
0
12
876.875
22
308.333715342
32
0
13
876.875
23
308.333715342
33
0
0
SOLID
5
147
100
AcDbEntity
8
0
6
CONTINUOUS
62
7
370
0
100
AcDbTrace
10
917.8125
20
308.75
30
0
11
915.3125
21
308.333715342
31
0
12
915.3125
22
309.166284658
32
0
13
915.3125
23
309.166284658
33
0
0
MTEXT
5
148
100
AcDbEntity
8
0
6
CONTINUOUS
62
7
370
0
100
AcDbMText
10
896.09375
20
310.625
30
0
40
2.5
41
12.2222222222
71
5
72
1
1
43.4375
7
standard
210
0
220
0
230
1
50
0
73
2
44
1
0
LINE
5
149
100
AcDbEntity
8
0
6
CONTINUOUS
62
7
370
0
100
AcDbLine
10
874.375
20
326.5625
11
874.375
21
307.5
0
LINE
5
14A
100
AcDbEntity
8
0
6
CONTINUOUS
62
7
370
0
100
AcDbLine
10
917.8125
20
327.1875
11
917.8125
21
307.5
0
ENDBLK
5
90
330
8E
100
AcDbEntity
8
0
100
AcDbBlockEnd
0
BLOCK
5
92
330
91
100
AcDbEntity
8
0
100
AcDbBlockBegin
2
*D9
70
1
10
0
20
0
3
*D9
1

0
LINE
5
14B
100
AcDbEntity
8
0
6
CONTINUOUS
62
7
370
0
100
AcDbLine
10
505.3125
20
335.3125
11
548.4375
21
335.3125
0
SOLID
5
14C
100
AcDbEntity
8
0
6
CONTINUOUS
62
7
370
0
100
AcDbTrace
10
505.3125
20
335.3125
30
0
11
507.8125
21
335.728784658
31
0
12
507.8125
22
334.896215342
32
0
13
507.8125
23
334.896215342
33
0
0
SOLID
5
14D
100
AcDbEntity
8
0
6
CONTINUOUS
62
7
370
0
100
AcDbTrace
10
548.4375
20
335.3125
30
0
11
545.9375
21
334.896215342
31
0
12
545.9375
22
335.728784658
32
0
13
545.9375
23
335.728784658
33
0
0
MTEXT
5
14E
100
AcDbEntity
8
0
6
CONTINUOUS
62
7
370
0
100
AcDbMText
10
526.875
20
337.1875
30
0
40
2.5
41
9.44444444444
71
5
72
1
1
43.125
7
standard
210
0
220
0
230
1
50
0
73
2
44
1
0
LINE
5
14F
100
AcDbEntity
8
0
6
CONTINUOUS
62
7
370
0
100
AcDbLine
10
505.3125
20
329.375
11
505.3125
21
336.5625
0
LINE
5
150
100
AcDbEntity
8
0
6
CONTINUOUS
62
7
370
0
100
AcDbLine
10
548.4375
20
329.375
11
548.4375
21
336.5625
0
ENDBLK
5
93
330
91
100
AcDbEntity
8
0
100
AcDbBlockEnd
0
BLOCK
5
95
330
94
100
AcDbEntity
8
0
100
AcDbBlockBegin
2
*D10
70
1
10
0
20
0
3
*D10
1

0
LINE
5
151
100
AcDbEntity
8
0
6
CONTINUOUS
62
7
370
0
100
AcDbLine
10
144.0625
20
299.6875
11
184.0625
21
299.6875
0
SOLID
5
152
100
AcDbEntity
8
0
6
CONTINUOUS
62
7
370
0
100
AcDbTrace
10
144.0625
20
299.6875
30
0
11
146.5625
21
300.103784658
31
0
12
146.5625
22
299.271215342
32
0
13
146.5625
23
299.271215342
33
0
0
SOLID
5
153
100
AcDbEntity
8
0
6
CONTINUOUS
62
7
370
0
100
AcDbTrace
10
184.0625
20
299.6875
30
0
11
181.5625
21
299.271215342
31
0
12
181.5625
22
300.103784658
32
0
13
181.5625
23
300.103784658
33
0
0
MTEXT
5
154
100
AcDbEntity
8
0
6
CONTINUOUS
62
7
370
0
100
AcDbMText
10
164.0625
20
301.5625
30
0
40
2.5
41
3.33333333333
71
5
72
1
1
40
7
standard
210
0
220
0
230
1
50
0
73
2
44
1
0
LINE
5
155
100
AcDbEntity
8
0
6
CONTINUOUS
62
7
370
0
100
AcDbLine
10
144.0625
20
328.4375
11
144.0625
21
298.4375
0
LINE
5
156
100
AcDbEntity
8
0
6
CONTINUOUS
62
7
370
0
100
AcDbLine
10
184.0625
20
328.4375
11
184.0625
21
298.4375
0
ENDBLK
5
96
330
94
100
AcDbEntity
8
0
100
AcDbBlockEnd
0
BLOCK
5
98
330
97
100
AcDbEntity
8
0
100
AcDbBlockBegin
2
*D20
70
1
10
0
20
0
3
*D20
1

0
LINE
5
157
100
AcDbEntity
8
0
6
CONTINUOUS
62
7
370
0
100
AcDbLine
10
5204.64
20
-2089.28
11
5241.12
21
-2089.28
0
SOLID
5
158
100
AcDbEntity
8
0
6
CONTINUOUS
62
7
370
0
100
AcDbTrace
10
5204.64
20
-2089.28
30
0
11
5207.14
21
-2088.86371534
31
0
12
5207.14
22
-2089.69628466
32
0
13
5207.14
23
-2089.69628466
33
0
0
SOLID
5
159
100
AcDbEntity
8
0
6
CONTINUOUS
62
7
370
0
100
AcDbTrace
10
5241.12
20
-2089.28
30
0
11
5238.62
21
-2089.69628466
31
0
12
5238.62
22
-2088.86371534
32
0
13
5238.62
23
-2088.86371534
33
0
0
MTEXT
5
15A
100
AcDbEntity
8
0
6
CONTINUOUS
62
7
370
0
100
AcDbMText
10
5222.88
20
-2087.405
30
0
40
2.5
41
8.05555555556
71
5
72
1
1
36.48
7
standard
210
0
220
0
230
1
50
0
73
2
44
1
0
LINE
5
15B
100
AcDbEntity
8
0
6
CONTINUOUS
62
7
370
0
100
AcDbLine
10
5204.64
20
-2083.825
11
5204.64
21
-2090.53
0
LINE
5
15C
100
AcDbEntity
8
0
6
CONTINUOUS
62
7
370
0
100
AcDbLine
10
5241.12
20
-2083.825
11
5241.12
21
-2090.53
0
ENDBLK
5
99
330
97
100
AcDbEntity
8
0
100
AcDbBlockEnd
0
BLOCK
5
9B
330
9A
100
AcDbEntity
8
0
100
AcDbBlockBegin
2
*D23
70
1
10
0
20
0
3
*D23
1

0
LINE
5
15D
100
AcDbEntity
8
0
6
CONTINUOUS
62
7
370
0
100
AcDbLine
10
2846.5625
20
-2079.6875
11
2881.5625
21
-2079.6875
0
SOLID
5
15E
100
AcDbEntity
8
0
6
CONTINUOUS
62
7
370
0
100
AcDbTrace
10
2846.5625
20
-2079.6875
30
0
11
2849.0625
21
-2079.27121534
31
0
12
2849.0625
22
-2080.10378466
32
0
13
2849.0625
23
-2080.10378466
33
0
0
SOLID
5
15F
100
AcDbEntity
8
0
6
CONTINUOUS
62
7
370
0
100
AcDbTrace
10
2881.5625
20
-2079.6875
30
0
11
2879.0625
21
-2080.10378466
31
0
12
2879.0625
22
-2079.27121534
32
0
13
2879.0625
23
-2079.27121534
33
0
0
MTEXT
5
160
100
AcDbEntity
8
0
6
CONTINUOUS
62
7
370
0
100
AcDbMText
10
2864.0625
20
-2077.8125
30
0
40
2.5
41
3.05555555556
71
5
72
1
1
35
7
standard
210
0
220
0
230
1
50
0
73
2
44
1
0
LINE
5
161
100
AcDbEntity
8
0
6
CONTINUOUS
62
7
370
0
100
AcDbLine
10
2846.5625
20
-2084.0625
11
2846.5625
21
-2078.4375
0
LINE
5
162
100
AcDbEntity
8
0
6
CONTINUOUS
62
7
370
0
100
AcDbLine
10
2881.5625
20
-2084.375
11
2881.5625
21
-2078.4375
0
ENDBLK
5
9C
330
9A
100
AcDbEntity
8
0
100
AcDbBlockEnd
0
BLOCK
5
9E
330
9D
100
AcDbEntity
8
0
100
AcDbBlockBegin
2
*D29
70
1
10
0
20
0
3
*D29
1

0
LINE
5
163
100
AcDbEntity
8
0
6
CONTINUOUS
62
7
370
0
100
AcDbLine
10
3989.25
20
-2101.75
11
4025.5
21
-2101.75
0
SOLID
5
164
100
AcDbEntity
8
0
6
CONTINUOUS
62
7
370
0
100
AcDbTrace
10
3989.25
20
-2101.75
30
0
11
3991.75
21
-2101.33371534
31
0
12
3991.75
22
-2102.16628466
32
0
13
3991.75
23
-2102.16628466
33
0
0
SOLID
5
165
100
AcDbEntity
8
0
6
CONTINUOUS
62
7
370
0
100
AcDbTrace
10
4025.5
20
-2101.75
30
0
11
4023
21
-2102.16628466
31
0
12
4023
22
-2101.33371534
32
0
13
4023
23
-2101.33371534
33
0
0
MTEXT
5
166
100
AcDbEntity
8
0
6
CONTINUOUS
62
7
370
0
100
AcDbMText
10
4007.375
20
-2099.875
30
0
40
2.5
41
7.77777777778
71
5
72
1
1
36.25
7
standard
210
0
220
0
230
1
50
0
73
2
44
1
0
LINE
5
167
100
AcDbEntity
8
0
6
CONTINUOUS
62
7
370
0
100
AcDbLine
10
3989.25
20
-2096.875
11
3989.25
21
-2103
0
LINE
5
168
100
AcDbEntity
8
0
6
CONTINUOUS
62
7
370
0
100
AcDbLine
10
4025.5
20
-2096.875
11
4025.5
21
-2103
0
ENDBLK
5
9F
330
9D
100
AcDbEntity
8
0
100
AcDbBlockEnd
0
BLOCK
5
A1
330
A0
100
AcDbEntity
8
0
100
AcDbBlockBegin
2
*D17
70
1
10
0
20
0
3
*D17
1

0
LINE
5
169
100
AcDbEntity
8
0
6
CONTINUOUS
62
7
370
0
100
AcDbLine
10
98.125
20
353.4375
11
98.125
21
262.5
0
SOLID
5
16A
100
AcDbEntity
8
0
6
CONTINUOUS
62
7
370
0
100
AcDbTrace
10
98.125
20
353.4375
30
0
11
98.5412846578
21
350.9375
31
0
12
97.7087153422
22
350.9375
32
0
13
97.7087153422
23
350.9375
33
0
0
SOLID
5
16B
100
AcDbEntity
8
0
6
CONTINUOUS
62
7
370
0
100
AcDbTrace
10
98.125
20
262.5
30
0
11
97.7087153422
21
265
31
0
12
98.5412846578
22
265
32
0
13
98.5412846578
23
265
33
0
0
MTEXT
5
16C
100
AcDbEntity
8
0
6
CONTINUOUS
62
7
370
0
100
AcDbMText
10
96.25
20
307.96875
30
0
40
2.5
41
11.6666666667
71
5
72
1
1
90.9375
7
standard
210
0
220
0
230
1
50
90
73
2
44
1
0
LINE
5
16D
100
AcDbEntity
8
0
6
CONTINUOUS
62
7
370
0
100
AcDbLine
10
162.5
20
353.4375
11
96.875
21
353.4375
0
LINE
5
16E
100
AcDbEntity
8
0
6
CONTINUOUS
62
7
370
0
100
AcDbLine
10
162.8125
20
262.5
11
96.875
21
262.5
0
ENDBLK
5
A2
330
A0
100
AcDbEntity
8
0
100
AcDbBlockEnd
0
BLOCK
5
A4
330
A3
100
AcDbEntity
8
0
100
AcDbBlockBegin
2
*D14
70
1
10
0
20
0
3
*D14
1

0
LINE
5
16F
100
AcDbEntity
8
0
6
CONTINUOUS
62
7
370
0
100
AcDbLine
10
778.125
20
320
11
778.125
21
175.9375
0
SOLID
5
170
100
AcDbEntity
8
0
6
CONTINUOUS
62
7
370
0
100
AcDbTrace
10
778.125
20
320
30
0
11
778.541284658
21
317.5
31
0
12
777.708715342
22
317.5
32
0
13
777.708715342
23
317.5
33
0
0
SOLID
5
171
100
AcDbEntity
8
0
6
CONTINUOUS
62
7
370
0
100
AcDbTrace
10
778.125
20
175.9375
30
0
11
777.708715342
21
178.4375
31
0
12
778.541284658
22
178.4375
32
0
13
778.541284658
23
178.4375
33
0
0
MTEXT
5
172
100
AcDbEntity
8
0
6
CONTINUOUS
62
7
370
0
100
AcDbMText
10
776.25
20
247.96875
30
0
40
2.5
41
13.6111111111
71
5
72
1
1
144.0625
7
standard
210
0
220
0
230
1
50
90
73
2
44
1
0
LINE
5
173
100
AcDbEntity
8
0
6
CONTINUOUS
62
7
370
0
100
AcDbLine
10
730.625
20
320
11
779.375
21
320
0
LINE
5
174
100
AcDbEntity
8
0
6
CONTINUOUS
62
7
370
0
100
AcDbLine
10
730.9375
20
175.9375
11
779.375
21
175.9375
0
ENDBLK
5
A5
330
A3
100
AcDbEntity
8
0
100
AcDbBlockEnd
0
BLOCK
5
A7
330
A6
100
AcDbEntity
8
0
100
AcDbBlockBegin
2
*D36
70
1
10
0
20
0
3
*D36
1

0
LINE
5
175
100
AcDbEntity
8
0
6
CONTINUOUS
62
7
370
0
100
AcDbLine
10
462.24
20
-2073.12
11
462.24
21
-2147.52
0
SOLID
5
176
100
AcDbEntity
8
0
6
CONTINUOUS
62
7
370
0
100
AcDbTrace
10
462.24
20
-2073.12
30
0
11
462.656284658
21
-2075.62
31
0
12
461.823715342
22
-2075.62
32
0
13
461.823715342
23
-2075.62
33
0
0
SOLID
5
177
100
AcDbEntity
8
0
6
CONTINUOUS
62
7
370
0
100
AcDbTrace
10
462.24
20
-2147.52
30
0
11
461.823715342
21
-2145.02
31
0
12
462.656284658
22
-2145.02
32
0
13
462.656284658
23
-2145.02
33
0
0
MTEXT
5
178
100
AcDbEntity
8
0
6
CONTINUOUS
62
7
370
0
100
AcDbMText
10
460.365
20
-2110.32
30
0
40
2.5
41
6.38888888889
71
5
72
1
1
74.4
7
standard
210
0
220
0
230
1
50
90
73
2
44
1
0
LINE
5
179
100
AcDbEntity
8
0
6
CONTINUOUS
62
7
370
0
100
AcDbLine
10
517.775
20
-2073.12
11
460.99
21
-2073.12
0
LINE
5
17A
100
AcDbEntity
8
0
6
CONTINUOUS
62
7
370
0
100
AcDbLine
10
517.935
20
-2147.52
11
460.99
21
-2147.52
0
ENDBLK
5
A8
330
A6
100
AcDbEntity
8
0
100
AcDbBlockEnd
0
BLOCK
5
AA
330
A9
100
AcDbEntity
8
0
100
AcDbBlockBegin
2
*D16
70
1
10
0
20
0
3
*D16
1

0
LINE
5
17B
100
AcDbEntity
8
0
6
CONTINUOUS
62
7
370
0
100
AcDbLine
10
411
20
330
11
411
21
216
0
SOLID
5
17C
100
AcDbEntity
8
0
6
CONTINUOUS
62
7
370
0
100
AcDbTrace
10
411
20
330
30
0
11
411.416284658
21
327.5
31
0
12
410.583715342
22
327.5
32
0
13
410.583715342
23
327.5
33
0
0
SOLID
5
17D
100
AcDbEntity
8
0
6
CONTINUOUS
62
7
370
0
100
AcDbTrace
10
411
20
216
30
0
11
410.583715342
21
218.5
31
0
12
411.416284658
22
218.5
32
0
13
411.416284658
23
218.5
33
0
0
MTEXT
5
17E
100
AcDbEntity
8
0
6
CONTINUOUS
62
7
370
0
100
AcDbMText
10
409.125
20
273
30
0
40
2.5
41
4.16666666667
71
5
72
1
1
114
7
standard
210
0
220
0
230
1
50
90
73
2
44
1
0
LINE
5
17F
100
AcDbEntity
8
0
6
CONTINUOUS
62
7
370
0
100
AcDbLine
10
370.825
20
330
11
412.25
21
330
0
LINE
5
180
100
AcDbEntity
8
0
6
CONTINUOUS
62
7
370
0
100
AcDbLine
10
370.425
20
216
11
412.25
21
216
0
ENDBLK
5
AB
330
A9
100
AcDbEntity
8
0
100
AcDbBlockEnd
0
BLOCK
5
AD
330
AC
100
AcDbEntity
8
0
100
AcDbBlockBegin
2
*D34
70
1
10
0
20
0
3
*D34
1

0
LINE
5
181
100
AcDbEntity
8
0
6
CONTINUOUS
62
7
370
0
100
AcDbLine
10
2784.6
20
-2081.4
11
2784.6
21
-2186.8
0
SOLID
5
182
100
AcDbEntity
8
0
6
CONTINUOUS
62
7
370
0
100
AcDbTrace
10
2784.6
20
-2081.4
30
0
11
2785.01628466
21
-2083.9
31
0
12
2784.18371534
22
-2083.9
32
0
13
2784.18371534
23
-2083.9
33
0
0
SOLID
5
183
100
AcDbEntity
8
0
6
CONTINUOUS
62
7
370
0
100
AcDbTrace
10
2784.6
20
-2186.8
30
0
11
2784.18371534
21
-2184.3
31
0
12
2785.01628466
22
-2184.3
32
0
13
2785.01628466
23
-2184.3
33
0
0
MTEXT
5
184
100
AcDbEntity
8
0
6
CONTINUOUS
62
7
370
0
100
AcDbMText
10
2782.725
20
-2134.1
30
0
40
2.5
41
7.5
71
5
72
1
1
105.4
7
standard
210
0
220
0
230
1
50
90
73
2
44
1
0
LINE
5
185
100
AcDbEntity
8
0
6
CONTINUOUS
62
7
370
0
100
AcDbLine
10
2844.775
20
-2081.4
11
2783.35
21
-2081.4
0
LINE
5
186
100
AcDbEntity
8
0
6
CONTINUOUS
62
7
370
0
100
AcDbLine
10
2844.375
20
-2186.8
11
2783.35
21
-2186.8
0
ENDBLK
5
AE
330
AC
100
AcDbEntity
8
0
100
AcDbBlockEnd
0
BLOCK
5
B0
330
AF
100
AcDbEntity
8
0
100
AcDbBlockBegin
2
*D13
70
1
10
0
20
0
3
*D13
1

0
LINE
5
187
100
AcDbEntity
8
0
6
CONTINUOUS
62
7
370
0
100
AcDbLine
10
968.4375
20
318.25
11
968.4375
21
148.75
0
SOLID
5
188
100
AcDbEntity
8
0
6
CONTINUOUS
62
7
370
0
100
AcDbTrace
10
968.4375
20
318.25
30
0
11
968.853784658
21
315.75
31
0
12
968.021215342
22
315.75
32
0
13
968.021215342
23
315.75
33
0
0
SOLID
5
189
100
AcDbEntity
8
0
6
CONTINUOUS
62
7
370
0
100
AcDbTrace
10
968.4375
20
148.75
30
0
11
968.021215342
21
151.25
31
0
12
968.853784658
22
151.25
32
0
13
968.853784658
23
151.25
33
0
0
MTEXT
5
18A
100
AcDbEntity
8
0
6
CONTINUOUS
62
7
370
0
100
AcDbMText
10
966.5625
20
233.5
30
0
40
2.5
41
7.22222222222
71
5
72
1
1
169.5
7
standard
210
0
220
0
230
1
50
90
73
2
44
1
0
LINE
5
18B
100
AcDbEntity
8
0
6
CONTINUOUS
62
7
370
0
100
AcDbLine
10
915.875
20
318.25
11
969.6875
21
318.25
0
LINE
5
18C
100
AcDbEntity
8
0
6
CONTINUOUS
62
7
370
0
100
AcDbLine
10
915.9375
20
148.75
11
969.6875
21
148.75
0
ENDBLK
5
B1
330
AF
100
AcDbEntity
8
0
100
AcDbBlockEnd
0
BLOCK
5
B3
330
B2
100
AcDbEntity
8
0
100
AcDbBlockBegin
2
*D28
70
1
10
0
20
0
3
*D28
1

0
LINE
5
18D
100
AcDbEntity
8
0
6
CONTINUOUS
62
7
370
0
100
AcDbLine
10
1611.93847656
20
-2213.74511719
11
1729.73632812
21
-2213.74511719
0
SOLID
5
18E
100
AcDbEntity
8
0
6
CONTINUOUS
62
7
370
0
100
AcDbTrace
10
1611.93847656
20
-2213.74511719
30
0
11
1614.43847656
21
-2213.32883253
31
0
12
1614.43847656
22
-2214.16140185
32
0
13
1614.43847656
23
-2214.16140185
33
0
0
SOLID
5
18F
100
AcDbEntity
8
0
6
CONTINUOUS
62
7
370
0
100
AcDbTrace
10
1729.73632812
20
-2213.74511719
30
0
11
1727.23632812
21
-2214.16140185
31
0
12
1727.23632812
22
-2213.32883253
32
0
13
1727.23632812
23
-2213.32883253
33
0
0
MTEXT
5
190
100
AcDbEntity
8
0
6
CONTINUOUS
62
7
370
0
100
AcDbMText
10
1670.83740234
20
-2211.87011719
30
0
40
2.5
41
12.5
71
5
72
1
1
117.7979
7
standard
210
0
220
0
230
1
50
0
73
2
44
1
0
LINE
5
191
100
AcDbEntity
8
0
6
CONTINUOUS
62
7
370
0
100
AcDbLine
10
1611.93847656
20
-2115.49316406
11
1611.93847656
21
-2214.99511719
0
LINE
5
192
100
AcDbEntity
8
0
6
CONTINUOUS
62
7
370
0
100
AcDbLine
10
1729.73632812
20
-2111.83105469
11
1729.73632812
21
-2214.99511719
0
ENDBLK
5
B4
330
B2
100
AcDbEntity
8
0
100
AcDbBlockEnd
0
ENDSEC
0
SECTION
2
ENTITIES
0
IMAGE
5
195
100
AcDbEntity
8
0
6
ByLayer
62
256
370
-1
100
AcDbRasterImage
10
4710.89833809
20
-1506.35059981
30
0
11
1
21
0
31
0
12
6.12323399574e-17
22
1
32
0
13
1024
23
1024
340
193
70
1
280
0
281
50
282
50
283
0
360
194
0
IMAGE
5
198
100
AcDbEntity
8
0
6
ByLayer
62
256
370
-1
100
AcDbRasterImage
10
4710.89833809
20
-2700.06239589
30
0
11
1
21
0
31
0
12
6.12323399574e-17
22
1
32
0
13
1024
23
1024
340
196
70
1
280
0
281
50
282
50
283
0
360
197
0
IMAGE
5
19B
100
AcDbEntity
8
0
6
ByLayer
62
256
370
-1
100
AcDbRasterImage
10
3495.87025994
20
-2714.2732506
30
0
11
1
21
0
31
0
12
6.12323399574e-17
22
1
32
0
13
1024
23
1024
340
199
70
1
280
0
281
50
282
50
283
0
360
19A
0
IMAGE
5
19E
100
AcDbEntity
8
0
6
ByLayer
62
256
370
-1
100
AcDbRasterImage
10
2351.89645537
20
-2700.06239589
30
0
11
1
21
0
31
0
12
6.12323399574e-17
22
1
32
0
13
1024
23
1024
340
19C
70
1
280
0
281
50
282
50
283
0
360
19D
0
IMAGE
5
1A1
100
AcDbEntity
8
0
6
ByLayer
62
256
370
-1
100
AcDbRasterImage
10
1158.18465929
20
-2707.16782325
30
0
11
1
21
0
31
0
12
6.12323399574e-17
22
1
32
0
13
1024
23
1024
340
19F
70
1
280
0
281
50
282
50
283
0
360
1A0
0
IMAGE
5
1A4
100
AcDbEntity
8
0
6
ByLayer
62
256
370
-1
100
AcDbRasterImage
10
7.1054273576
20
-2714.2732506
30
0
11
1
21
0
31
0
12
6.12323399574e-17
22
1
32
0
13
1024
23
1024
340
1A2
70
1
280
0
281
50
282
50
283
0
360
1A3
0
IMAGE
5
1A7
100
AcDbEntity
8
0
6
ByLayer
62
256
370
-1
100
AcDbRasterImage
10
4.5
20
3.25
30
0
11
1
21
0
31
0
12
6.12323399574e-17
22
1
32
0
13
1028
23
810
340
1A5
70
1
280
0
281
50
282
50
283
0
360
1A6
0
DIMENSION
5
1A8
100
AcDbEntity
8
0
6
ByLayer
62
256
370
-1
100
AcDbDimension
2
*D1
10
946.044921875
20
625
30
0
11
895.080566406
21
626.875
31
0
70
32
71
5
3
Standard
53
0
210
0
220
0
230
1
100
AcDbAlignedDimension
13
844.116210938
23
649.4140625
33
0
14
946.044921875
24
650.024414062
34
0
100
AcDbRotatedDimension
0
DIMENSION
5
1A9
100
AcDbEntity
8
0
6
ByLayer
62
256
370
-1
100
AcDbDimension
2
*D2
10
223
20
237
30
0
11
168
21
238.875
31
0
70
32
71
5
3
Standard
53
0
210
0
220
0
230
1
100
AcDbAlignedDimension
13
113
23
271.5
33
0
14
223
24
271.75
34
0
100
AcDbRotatedDimension
0
DIMENSION
5
1AA
100
AcDbEntity
8
0
6
ByLayer
62
256
370
-1
100
AcDbDimension
2
*D3
10
420
20
200.3125
30
0
11
353.75
21
202.1875
31
0
70
32
71
5
3
Standard
53
0
210
0
220
0
230
1
100
AcDbAlignedDimension
13
287.5
23
230.9375
33
0
14
420
24
231.875
34
0
100
AcDbRotatedDimension
0
DIMENSION
5
1AB
100
AcDbEntity
8
0
6
ByLayer
62
256
370
-1
100
AcDbDimension
2
*D4
10
601.25
20
187.8125
30
0
11
532.1875
21
189.6875
31
0
70
32
71
5
3
Standard
53
0
210
0
220
0
230
1
100
AcDbAlignedDimension
13
463.125
23
219.6875
33
0
14
601.25
24
220
34
0
100
AcDbRotatedDimension
0
DIMENSION
5
1AC
100
AcDbEntity
8
0
6
ByLayer
62
256
370
-1
100
AcDbDimension
2
*D5
10
787.8125
20
157.1875
30
0
11
714.21875
21
159.0625
31
0
70
32
71
5
3
Standard
53
0
210
0
220
0
230
1
100
AcDbAlignedDimension
13
640.625
23
195
33
0
14
787.8125
24
195
34
0
100
AcDbRotatedDimension
0
DIMENSION
5
1AD
100
AcDbEntity
8
0
6
ByLayer
62
256
370
-1
100
AcDbDimension
2
*D6
10
981.5625
20
133.4375
30
0
11
900.15625
21
135.3125
31
0
70
32
71
5
3
Standard
53
0
210
0
220
0
230
1
100
AcDbAlignedDimension
13
818.75
23
169.0625
33
0
14
981.5625
24
169.0625
34
0
100
AcDbRotatedDimension
0
DIMENSION
5
1AE
100
AcDbEntity
8
0
6
ByLayer
62
256
370
-1
100
AcDbDimension
2
*D7
10
917.8125
20
308.75
30
0
11
896.09375
21
310.625
31
0
70
32
71
5
3
Standard
53
0
210
0
220
0
230
1
100
AcDbAlignedDimension
13
874.375
23
327.1875
33
0
14
917.8125
24
327.8125
34
0
100
AcDbRotatedDimension
0
DIMENSION
5
1AF
100
AcDbEntity
8
0
6
ByLayer
62
256
370
-1
100
AcDbDimension
2
*D8
10
730.3125
20
334.375
30
0
11
709.375
21
336.25
31
0
70
32
71
5
3
Standard
53
0
210
0
220
0
230
1
100
AcDbAlignedDimension
13
688.4375
23
328.125
33
0
14
730.3125
24
327.8125
34
0
100
AcDbRotatedDimension
0
DIMENSION
5
1B0
100
AcDbEntity
8
0
6
ByLayer
62
256
370
-1
100
AcDbDimension
2
*D9
10
548.4375
20
335.3125
30
0
11
526.875
21
337.1875
31
0
70
32
71
5
3
Standard
53
0
210
0
220
0
230
1
100
AcDbAlignedDimension
13
505.3125
23
328.75
33
0
14
548.4375
24
328.75
34
0
100
AcDbRotatedDimension
0
DIMENSION
5
1B1
100
AcDbEntity
8
0
6
ByLayer
62
256
370
-1
100
AcDbDimension
2
*D10
10
184.0625
20
299.6875
30
0
11
164.0625
21
301.5625
31
0
70
32
71
5
3
Standard
53
0
210
0
220
0
230
1
100
AcDbAlignedDimension
13
144.0625
23
329.0625
33
0
14
184.0625
24
329.0625
34
0
100
AcDbRotatedDimension
0
DIMENSION
5
1B2
100
AcDbEntity
8
0
6
ByLayer
62
256
370
-1
100
AcDbDimension
2
*D11
10
911.8
20
665.8
30
0
11
891.4
21
667.675
31
0
70
32
71
5
3
Standard
53
0
210
0
220
0
230
1
100
AcDbAlignedDimension
13
871
23
692.8
33
0
14
911.8
24
693
34
0
100
AcDbRotatedDimension
0
DIMENSION
5
1B3
100
AcDbEntity
8
0
6
ByLayer
62
256
370
-1
100
AcDbDimension
2
*D12
10
833.4
20
643.4
30
0
11
831.525
21
684.9
31
0
70
32
71
5
3
Standard
53
0
210
0
220
0
230
1
100
AcDbAlignedDimension
13
889.8
23
726.4
33
0
14
890
24
643.4
34
0
50
90
100
AcDbRotatedDimension
0
DIMENSION
5
1B4
100
AcDbEntity
8
0
6
ByLayer
62
256
370
-1
100
AcDbDimension
2
*D13
10
968.4375
20
148.75
30
0
11
966.5625
21
233.5
31
0
70
32
71
5
3
Standard
53
0
210
0
220
0
230
1
100
AcDbAlignedDimension
13
915.25
23
318.25
33
0
14
915.3125
24
148.75
34
0
50
90
100
AcDbRotatedDimension
0
DIMENSION
5
1B5
100
AcDbEntity
8
0
6
ByLayer
62
256
370
-1
100
AcDbDimension
2
*D14
10
778.125
20
175.9375
30
0
11
776.25
21
247.96875
31
0
70
32
71
5
3
Standard
53
0
210
0
220
0
230
1
100
AcDbAlignedDimension
13
730
23
320
33
0
14
730.3125
24
175.9375
34
0
50
90
100
AcDbRotatedDimension
0
DIMENSION
5
1B6
100
AcDbEntity
8
0
6
ByLayer
62
256
370
-1
100
AcDbDimension
2
*D15
10
589.375
20
203.125
30
0
11
587.5
21
264.84375
31
0
70
32
71
5
3
Standard
53
0
210
0
220
0
230
1
100
AcDbAlignedDimension
13
548.125
23
326.5625
33
0
14
548.125
24
203.125
34
0
50
90
100
AcDbRotatedDimension
0
DIMENSION
5
1B7
100
AcDbEntity
8
0
6
ByLayer
62
256
370
-1
100
AcDbDimension
2
*D16
10
411
20
216
30
0
11
409.125
21
273
31
0
70
32
71
5
3
Standard
53
0
210
0
220
0
230
1
100
AcDbAlignedDimension
13
370.2
23
330
33
0
14
369.8
24
216
34
0
50
90
100
AcDbRotatedDimension
0
DIMENSION
5
1B8
100
AcDbEntity
8
0
6
ByLayer
62
256
370
-1
100
AcDbDimension
2
*D17
10
98.125
20
262.5
30
0
11
96.25
21
307.96875
31
0
70
32
71
5
3
Standard
53
0
210
0
220
0
230
1
100
AcDbAlignedDimension
13
163.125
23
353.4375
33
0
14
163.4375
24
262.5
34
0
50
90
100
AcDbRotatedDimension
0
DIMENSION
5
1B9
100
AcDbEntity
8
0
6
ByLayer
62
256
370
-1
100
AcDbDimension
2
*D18
10
5240.832
20
-888.96
30
0
11
5222.656
21
-887.085
31
0
70
32
71
5
72
0
3
Standard
53
0
210
0
220
0
230
1
100
AcDbAlignedDimension
13
5204.48
23
-891.392
33
0
14
5240.832
24
-891.392
34
0
100
AcDbRotatedDimension
0
DIMENSION
5
1BA
100
AcDbEntity
8
0
6
ByLayer
62
256
370
-1
100
AcDbDimension
2
*D19
10
5260.8
20
-934.784
30
0
11
5222.72
21
-932.909
31
0
70
32
71
5
72
0
3
Standard
53
0
210
0
220
0
230
1
100
AcDbAlignedDimension
13
5184.64
23
-924.032
33
0
14
5260.8
24
-923.648
34
0
100
AcDbRotatedDimension
0
DIMENSION
5
1BB
100
AcDbEntity
8
0
6
ByLayer
62
256
370
-1
100
AcDbDimension
2
*D20
10
5241.12
20
-2089.28
30
0
11
5222.88
21
-2087.405
31
0
70
32
71
5
72
0
3
Standard
53
0
210
0
220
0
230
1
100
AcDbAlignedDimension
13
5204.64
23
-2083.2
33
0
14
5241.12
24
-2083.2
34
0
100
AcDbRotatedDimension
0
DIMENSION
5
1BC
100
AcDbEntity
8
0
6
ByLayer
62
256
370
-1
100
AcDbDimension
2
*D21
10
5311
20
-2269.25
30
0
11
5224.5
21
-2267.375
31
0
70
32
71
5
72
0
3
Standard
53
0
210
0
220
0
230
1
100
AcDbAlignedDimension
13
5138
23
-2200.5
33
0
14
5311
24
-2200.5
34
0
100
AcDbRotatedDimension
0
DIMENSION
5
1BD
100
AcDbEntity
8
0
6
ByLayer
62
256
370
-1
100
AcDbDimension
2
*D22
10
5297.75
20
-2200
30
0
11
5222.625
21
-2198.125
31
0
70
32
71
5
72
0
3
Standard
53
0
210
0
220
0
230
1
100
AcDbAlignedDimension
13
5147.5
23
-2163.5
33
0
14
5297.75
24
-2163
34
0
100
AcDbRotatedDimension
0
DIMENSION
5
1BE
100
AcDbEntity
8
0
6
ByLayer
62
256
370
-1
100
AcDbDimension
2
*D23
10
2881.5625
20
-2079.6875
30
0
11
2864.0625
21
-2077.8125
31
0
70
32
71
5
72
0
3
Standard
53
0
210
0
220
0
230
1
100
AcDbAlignedDimension
13
2846.5625
23
-2084.6875
33
0
14
2881.5625
24
-2085
34
0
100
AcDbRotatedDimension
0
DIMENSION
5
1BF
100
AcDbEntity
8
0
6
ByLayer
62
256
370
-1
100
AcDbDimension
2
*D24
10
2929.375
20
-2186.5625
30
0
11
2864.53125
21
-2184.6875
31
0
70
32
71
5
72
0
3
Standard
53
0
210
0
220
0
230
1
100
AcDbAlignedDimension
13
2799.6875
23
-2136.5625
33
0
14
2929.375
24
-2135.9375
34
0
100
AcDbRotatedDimension
0
DIMENSION
5
1C0
100
AcDbEntity
8
0
6
ByLayer
62
256
370
-1
100
AcDbDimension
2
*D25
10
537
20
-2097.5
30
0
11
518.75
21
-2095.625
31
0
70
32
71
5
72
0
3
Standard
53
0
210
0
220
0
230
1
100
AcDbAlignedDimension
13
500.5
23
-2100.25
33
0
14
537
24
-2099.75
34
0
100
AcDbRotatedDimension
0
DIMENSION
5
1C1
100
AcDbEntity
8
0
6
ByLayer
62
256
370
-1
100
AcDbDimension
2
*D26
10
562.75
20
-2166.75
30
0
11
519.375
21
-2164.875
31
0
70
32
71
5
72
0
3
Standard
53
0
210
0
220
0
230
1
100
AcDbAlignedDimension
13
476
23
-2081.5
33
0
14
562.75
24
-2081.25
34
0
100
AcDbRotatedDimension
0
DIMENSION
5
1C2
100
AcDbEntity
8
0
6
ByLayer
62
256
370
-1
100
AcDbDimension
2
*D27
10
1688
20
-2087
30
0
11
1670.5
21
-2085.125
31
0
70
32
71
5
72
0
3
Standard
53
0
210
0
220
0
230
1
100
AcDbAlignedDimension
13
1653
23
-2089.4
33
0
14
1688
24
-2089
34
0
100
AcDbRotatedDimension
0
DIMENSION
5
1C3
100
AcDbEntity
8
0
6
ByLayer
62
256
370
-1
100
AcDbDimension
2
*D28
10
1729.73632812
20
-2213.74511719
30
0
11
1670.83740234
21
-2211.87011719
31
0
70
32
71
5
72
0
3
Standard
53
0
210
0
220
0
230
1
100
AcDbAlignedDimension
13
1611.93847656
23
-2114.86816406
33
0
14
1729.73632812
24
-2111.20605469
34
0
100
AcDbRotatedDimension
0
DIMENSION
5
1C4
100
AcDbEntity
8
0
6
ByLayer
62
256
370
-1
100
AcDbDimension
2
*D29
10
4025.5
20
-2101.75
30
0
11
4007.375
21
-2099.875
31
0
70
32
71
5
72
0
3
Standard
53
0
210
0
220
0
230
1
100
AcDbAlignedDimension
13
3989.25
23
-2096.25
33
0
14
4025.5
24
-2096.25
34
0
100
AcDbRotatedDimension
0
DIMENSION
5
1C5
100
AcDbEntity
8
0
6
ByLayer
62
256
370
-1
100
AcDbDimension
2
*D30
10
4085.25
20
-2235
30
0
11
4009.5
21
-2233.125
31
0
70
32
71
5
72
0
3
Standard
53
0
210
0
220
0
230
1
100
AcDbAlignedDimension
13
3933.75
23
-2144.5
33
0
14
4085.25
24
-2145
34
0
100
AcDbRotatedDimension
0
DIMENSION
5
1C6
100
AcDbEntity
8
0
6
ByLayer
62
256
370
-1
100
AcDbDimension
2
*D31
10
5173.8
20
-925
30
0
11
5171.925
21
-891.6
31
0
70
32
71
5
72
0
3
Standard
53
0
210
0
220
0
230
1
100
AcDbAlignedDimension
13
5222.6
23
-858.2
33
0
14
5222.8
24
-925
34
0
50
90
100
AcDbRotatedDimension
0
DIMENSION
5
1C7
100
AcDbEntity
8
0
6
ByLayer
62
256
370
-1
100
AcDbDimension
2
*D32
10
5117.1875
20
-2241.40625
30
0
11
5115.3125
21
-2163.0859375
31
0
70
32
71
5
72
0
3
Standard
53
0
210
0
220
0
230
1
100
AcDbAlignedDimension
13
5201.953125
23
-2084.765625
33
0
14
5201.5625
24
-2241.40625
34
0
50
90
100
AcDbRotatedDimension
0
DIMENSION
5
1C8
100
AcDbEntity
8
0
6
ByLayer
62
256
370
-1
100
AcDbDimension
2
*D33
10
3911.875
20
-2229.375
30
0
11
3910
21
-2162.65625
31
0
70
32
71
5
72
0
3
Standard
53
0
210
0
220
0
230
1
100
AcDbAlignedDimension
13
3989.0625
23
-2095.9375
33
0
14
3988.4375
24
-2229.375
34
0
50
90
100
AcDbRotatedDimension
0
DIMENSION
5
1C9
100
AcDbEntity
8
0
6
ByLayer
62
256
370
-1
100
AcDbDimension
2
*D34
10
2784.6
20
-2186.8
30
0
11
2782.725
21
-2134.1
31
0
70
32
71
5
72
0
3
Standard
53
0
210
0
220
0
230
1
100
AcDbAlignedDimension
13
2845.4
23
-2081.4
33
0
14
2845
24
-2186.8
34
0
50
90
100
AcDbRotatedDimension
0
DIMENSION
5
1CA
100
AcDbEntity
8
0
6
ByLayer
62
256
370
-1
100
AcDbDimension
2
*D35
10
1602.432
20
-2180.48
30
0
11
1600.557
21
-2134.336
31
0
70
32
71
5
72
0
3
Standard
53
0
210
0
220
0
230
1
100
AcDbAlignedDimension
13
1651.584
23
-2088.192
33
0
14
1651.2
24
-2180.48
34
0
50
90
100
AcDbRotatedDimension
0
DIMENSION
5
1CB
100
AcDbEntity
8
0
6
ByLayer
62
256
370
-1
100
AcDbDimension
2
*D36
10
462.24
20
-2147.52
30
0
11
460.365
21
-2110.32
31
0
70
32
71
5
72
0
3
Standard
53
0
210
0
220
0
230
1
100
AcDbAlignedDimension
13
518.4
23
-2073.12
33
0
14
518.56
24
-2147.52
34
0
50
90
100
AcDbRotatedDimension
0
DIMENSION
5
1CC
100
AcDbEntity
8
0
6
ByLayer
62
256
370
-1
100
AcDbDimension
2
*D37
10
4079.75
20
-2194.25
30
0
11
4008.75
21
-2192.375
31
0
70
32
71
5
3
Standard
53
0
210
0
220
0
230
1
100
AcDbAlignedDimension
13
3937.75
23
-2205
33
0
14
4079.75
24
-2205
34
0
100
AcDbRotatedDimension
0
ENDSEC
0
SECTION
2
OBJECTS
0
DICTIONARY
5
C
330
0
100
AcDbDictionary
281
1
3
ACAD_GROUP
350
D
3
ACAD_IMAGE_DICT
350
1CD
0
DICTIONARY
5
D
330
C
100
AcDbDictionary
281
1
0
IMAGEDEF_REACTOR
5
194
330
195
100
AcDbRasterImageDefReactor
90
2
330
195
0
IMAGEDEF_REACTOR
5
197
330
198
100
AcDbRasterImageDefReactor
90
2
330
198
0
IMAGEDEF_REACTOR
5
19A
330
19B
100
AcDbRasterImageDefReactor
90
2
330
19B
0
IMAGEDEF_REACTOR
5
19D
330
19E
100
AcDbRasterImageDefReactor
90
2
330
19E
0
IMAGEDEF_REACTOR
5
1A0
330
1A1
100
AcDbRasterImageDefReactor
90
2
330
1A1
0
IMAGEDEF_REACTOR
5
1A3
330
1A4
100
AcDbRasterImageDefReactor
90
2
330
1A4
0
IMAGEDEF_REACTOR
5
1A6
330
1A7
100
AcDbRasterImageDefReactor
90
2
330
1A7
0
DICTIONARY
5
1CD
330
C
100
AcDbDictionary
281
1
3
vof-571
350
193
3
vof-1856
350
196
3
vof-1570
350
199
3
vof-1284
350
19C
3
vof-1142
350
19F
3
vof-714
350
1A2
3
case2
350
1A5
0
IMAGEDEF
5
193
102
{ACAD_REACTORS
330
194
102
}
100
AcDbRasterImageDef
90
0
1
/home/vilela/Dropbox/Doctorate/papers/icmf/full-paper/validation/lamella-dimensions/simulation-c5-l10/vof-571.ppm
10
1024
20
1024
11
1
21
1
280
1
281
0
0
IMAGEDEF
5
196
102
{ACAD_REACTORS
330
197
102
}
100
AcDbRasterImageDef
90
0
1
/home/vilela/Dropbox/Doctorate/papers/icmf/full-paper/validation/lamella-dimensions/simulation-c5-l10/vof-1856.ppm
10
1024
20
1024
11
1
21
1
280
1
281
0
0
IMAGEDEF
5
199
102
{ACAD_REACTORS
330
19A
102
}
100
AcDbRasterImageDef
90
0
1
/home/vilela/Dropbox/Doctorate/papers/icmf/full-paper/validation/lamella-dimensions/simulation-c5-l10/vof-1570.ppm
10
1024
20
1024
11
1
21
1
280
1
281
0
0
IMAGEDEF
5
19C
102
{ACAD_REACTORS
330
19D
102
}
100
AcDbRasterImageDef
90
0
1
/home/vilela/Dropbox/Doctorate/papers/icmf/full-paper/validation/lamella-dimensions/simulation-c5-l10/vof-1284.ppm
10
1024
20
1024
11
1
21
1
280
1
281
0
0
IMAGEDEF
5
19F
102
{ACAD_REACTORS
330
1A0
102
}
100
AcDbRasterImageDef
90
0
1
/home/vilela/Dropbox/Doctorate/papers/icmf/full-paper/validation/lamella-dimensions/simulation-c5-l10/vof-1142.ppm
10
1024
20
1024
11
1
21
1
280
1
281
0
0
IMAGEDEF
5
1A2
102
{ACAD_REACTORS
330
1A3
102
}
100
AcDbRasterImageDef
90
0
1
/home/vilela/Dropbox/Doctorate/papers/icmf/full-paper/validation/lamella-dimensions/simulation-c5-l10/vof-714.ppm
10
1024
20
1024
11
1
21
1
280
1
281
0
0
IMAGEDEF
5
1A5
102
{ACAD_REACTORS
330
1A6
102
}
100
AcDbRasterImageDef
90
0
1
/home/vilela/Dropbox/Doctorate/papers/icmf/full-paper/validation/lamella-dimensions/case2.png
10
1028
20
810
11
1
21
1
280
1
281
0
0
ENDSEC
0
EOF
